<svg width="18" height="15" viewBox="0 0 18 15" fill="none" xmlns="http://www.w3.org/2000/svg">
<path d="M15.6 11.25C15.9313 11.25 16.2406 11.2988 16.5281 11.3965C16.8156 11.4941 17.0719 11.6284 17.2969 11.7993C17.5219 11.9702 17.6938 12.168 17.8125 12.3926C17.9313 12.6172 17.9938 12.8613 18 13.125C18 13.3838 17.9375 13.6255 17.8125 13.8501C17.6875 14.0747 17.5156 14.2749 17.2969 14.4507C17.0781 14.6265 16.825 14.7607 16.5375 14.8535C16.25 14.9463 15.9375 14.9951 15.6 15V14.0625C15.7688 14.0625 15.925 14.0381 16.0688 13.9893C16.2125 13.9404 16.3375 13.8745 16.4438 13.7915C16.55 13.7085 16.6375 13.6084 16.7063 13.4912C16.775 13.374 16.8063 13.252 16.8 13.125C16.8 12.9932 16.7688 12.8711 16.7063 12.7588C16.6438 12.6465 16.5594 12.5488 16.4531 12.4658C16.3469 12.3828 16.2188 12.3145 16.0688 12.2607C15.9188 12.207 15.7625 12.1826 15.6 12.1875H12.8531L14.3719 13.3813L13.5281 14.0405L10.5563 11.7188L13.5281 9.39697L14.3719 10.0562L12.8531 11.25H15.6ZM11.4281 14.0625L12.6281 15H0V0H10.4531L15.6 4.021V9.36035L14.4 8.42285V4.6875H9.6V0.9375H1.2V14.0625H11.4281ZM10.8 3.75H13.5469L10.8 1.604V3.75Z" fill="#677788"/>
</svg>
