<svg width="133" height="124" viewBox="0 0 133 124" fill="none" xmlns="http://www.w3.org/2000/svg">
<path d="M128 8.8V115.2C128 117.299 126.165 119 123.9 119H9.1C6.83564 119 5 117.299 5 115.2V8.8C5 6.70132 6.83564 5 9.1 5H123.9C126.165 5 128 6.70132 128 8.8Z" stroke="#C1B4B4" stroke-width="8.96342" stroke-linecap="round" stroke-linejoin="round"/>
<path d="M5 87.3333L52.8333 68.3333L128 99.9999" stroke="#C1B4B4" stroke-width="8.96342" stroke-linecap="round" stroke-linejoin="round"/>
<path d="M93.8337 49.3333C86.2856 49.3333 80.167 43.6623 80.167 36.6667C80.167 29.6711 86.2856 24 93.8337 24C101.382 24 107.5 29.6711 107.5 36.6667C107.5 43.6623 101.382 49.3333 93.8337 49.3333Z" stroke="#C1B4B4" stroke-width="8.96342" stroke-linecap="round" stroke-linejoin="round"/>
</svg>
