<svg width="11" height="6" viewBox="0 0 11 6" fill="none" xmlns="http://www.w3.org/2000/svg">
<path d="M1.19207 5.67429C1.32635 5.81875 1.50845 5.8999 1.69832 5.8999C1.88818 5.8999 2.07028 5.81875 2.20456 5.67429L5.74899 1.85992L9.29342 5.67429C9.42847 5.81465 9.60934 5.89232 9.79709 5.89057C9.98483 5.88881 10.1644 5.80777 10.2972 5.6649C10.4299 5.52203 10.5053 5.32876 10.5069 5.12671C10.5085 4.92467 10.4363 4.73002 10.3059 4.58469L6.25523 0.225518C6.12095 0.0810566 5.93886 -9.77516e-05 5.74899 -9.77516e-05C5.55912 -9.77516e-05 5.37702 0.0810566 5.24274 0.225518L1.19207 4.58469C1.05783 4.72919 0.982422 4.92516 0.982422 5.12949C0.982422 5.33382 1.05783 5.52978 1.19207 5.67429Z" fill="#747E8F"/>
</svg>
