<svg width="6" height="11" viewBox="0 0 6 11" fill="none" xmlns="http://www.w3.org/2000/svg">
<path d="M0.225615 10.0243C0.081154 9.87976 -2.47444e-08 9.68379 -3.36759e-08 9.47946C-4.26075e-08 9.27513 0.081154 9.07917 0.225615 8.93466L4.03998 5.12029L0.225615 1.30592C0.0852477 1.16059 0.00757726 0.965941 0.00933295 0.763898C0.0110887 0.561854 0.0921299 0.368583 0.235002 0.225711C0.377873 0.082839 0.571144 0.00179956 0.773188 4.38352e-05C0.975231 -0.00171189 1.16988 0.0759582 1.31521 0.216325L5.67438 4.57549C5.81885 4.72 5.9 4.91596 5.9 5.12029C5.9 5.32462 5.81885 5.52059 5.67438 5.66509L1.31521 10.0243C1.17071 10.1687 0.974745 10.2499 0.770415 10.2499C0.566085 10.2499 0.37012 10.1687 0.225615 10.0243Z" fill="#B7BABE"/>
</svg>
