<svg width="16" height="9" viewBox="0 0 16 9" fill="none" xmlns="http://www.w3.org/2000/svg">
<path d="M0.340335 0.340335C0.558317 0.122419 0.853925 0 1.16215 0C1.47038 0 1.76599 0.122419 1.98397 0.340335L7.73785 6.09421L13.4917 0.340335C13.711 0.128595 14.0046 0.0114307 14.3094 0.0140792C14.6141 0.0167276 14.9057 0.138976 15.1212 0.354495C15.3367 0.570013 15.459 0.861557 15.4616 1.16633C15.4643 1.47111 15.3471 1.76474 15.1354 1.98397L8.55966 8.55966C8.34168 8.77758 8.04607 8.9 7.73785 8.9C7.42962 8.9 7.13401 8.77758 6.91603 8.55966L0.340335 1.98397C0.122419 1.76599 0 1.47038 0 1.16215C0 0.853925 0.122419 0.558317 0.340335 0.340335Z" fill="#747E8F"/>
</svg>
