<svg width="6" height="11" viewBox="0 0 6 11" fill="none" xmlns="http://www.w3.org/2000/svg">
<path d="M5.67429 10.0243C5.81875 9.87976 5.8999 9.68379 5.8999 9.47946C5.8999 9.27513 5.81875 9.07917 5.67429 8.93466L1.85992 5.12029L5.67429 1.30592C5.81465 1.16059 5.89233 0.965941 5.89057 0.763898C5.88881 0.561854 5.80777 0.368583 5.6649 0.225711C5.52203 0.082839 5.32876 0.00179956 5.12671 4.38352e-05C4.92467 -0.00171189 4.73002 0.0759582 4.58469 0.216325L0.225518 4.57549C0.0810568 4.72 -9.75185e-05 4.91596 -9.75274e-05 5.12029C-9.75363e-05 5.32462 0.0810568 5.52059 0.225518 5.66509L4.58469 10.0243C4.72919 10.1687 4.92516 10.2499 5.12949 10.2499C5.33382 10.2499 5.52978 10.1687 5.67429 10.0243Z" fill="#B7BABE"/>
</svg>
