<svg width="20" height="20" viewBox="0 0 20 20" fill="none" xmlns="http://www.w3.org/2000/svg">
<path d="M13.7357 11.8555C13.7239 11.7783 13.6545 11.6814 13.5801 11.6163C13.3669 11.4286 12.8982 11.3302 12.1841 11.3211C11.7002 11.3166 11.1181 11.3544 10.5056 11.4316C10.2315 11.2908 9.94891 11.1364 9.72725 10.9503C9.12995 10.4522 8.63249 9.76047 8.32115 8.99907C8.34146 8.92792 8.35838 8.86586 8.3753 8.80228C8.3753 8.80228 8.71032 7.0948 8.62234 6.51656C8.61049 6.43785 8.60203 6.41514 8.57834 6.35308L8.54958 6.28648C8.45821 6.09726 8.27885 5.89745 7.99797 5.90804L7.83215 5.9035H7.82876C7.51404 5.9035 7.26023 6.04731 7.19255 6.26074C6.9895 6.93283 7.19932 7.93946 7.58003 9.24126L7.48189 9.45318C7.20947 10.0496 6.86768 10.649 6.56649 11.1773L6.52757 11.2454C6.20947 11.801 5.92182 12.2732 5.65955 12.6729L5.39051 12.8C5.37021 12.8091 4.90828 13.0286 4.79998 13.0861C3.8812 13.5781 3.27206 14.1351 3.17053 14.5771C3.13839 14.7194 3.16207 14.8996 3.3262 14.9828L3.58678 15.1009C3.70015 15.1508 3.82028 15.1766 3.94211 15.1766C4.59694 15.1766 5.35667 14.447 6.40405 12.8121C7.61218 12.4609 8.98951 12.1673 10.1959 12.0068C11.1147 12.4685 12.245 12.7909 12.9591 12.7909C13.086 12.7909 13.196 12.7803 13.284 12.7592C13.421 12.7259 13.5361 12.6562 13.6071 12.5624C13.7459 12.3762 13.773 12.1188 13.7357 11.8555ZM3.79998 14.733C3.91842 14.4409 4.3922 13.8627 5.09102 13.351C5.13501 13.3192 5.2433 13.2284 5.34144 13.1436C4.61047 14.1866 4.12147 14.6014 3.79998 14.733ZM7.93875 6.20625C8.14856 6.20625 8.2687 6.68004 8.27885 7.12508C8.289 7.57011 8.17225 7.88194 8.02843 8.11354C7.90829 7.77144 7.85076 7.23255 7.85076 6.87985C7.85076 6.87985 7.8423 6.20625 7.93875 6.20625ZM6.70355 12.2823C6.85076 12.0477 7.00304 11.7995 7.15871 11.5376C7.53942 10.8942 7.77969 10.3917 7.95736 9.97844C8.31269 10.5567 8.75601 11.0486 9.27547 11.4422C9.34146 11.4907 9.41084 11.5406 9.4819 11.5906C8.42437 11.7767 7.50897 12.0053 6.70355 12.2823ZM13.3753 12.2294C13.311 12.2642 13.1266 12.2854 13.0081 12.2854C12.6257 12.2854 12.1503 12.1294 11.4853 11.8736C11.7408 11.857 11.976 11.8479 12.1858 11.8479C12.5699 11.8479 12.6833 11.8464 13.0606 11.9327C13.4362 12.0189 13.4413 12.193 13.3753 12.2294Z" fill="#FF402F"/>
<path d="M15.2406 11.8071C12.9978 11.8071 11.1797 13.4336 11.1797 15.4401C11.1797 17.4465 12.9978 19.073 15.2406 19.073C17.4834 19.073 19.3016 17.4465 19.3016 15.4401C19.3016 13.4336 17.4834 11.8071 15.2406 11.8071ZM17.0819 14.3786L17.0628 14.4053L15.6699 16.1367C15.5772 16.2678 15.4147 16.3483 15.2406 16.3483C15.0665 16.3483 14.9041 16.2678 14.8115 16.1368L13.3993 14.3788C13.3098 14.2386 13.3107 14.065 13.401 13.9256C13.4915 13.786 13.6599 13.6994 13.8403 13.6994H14.5638V12.7154C14.5638 12.465 14.7915 12.2612 15.0714 12.2612H15.4098C15.6897 12.2612 15.9174 12.465 15.9174 12.7154V13.6993H16.641C16.8212 13.6993 16.9897 13.7859 17.0802 13.9254C17.1706 14.0648 17.1714 14.2386 17.0819 14.3786Z" fill="#FF402F"/>
<path d="M11.8707 18.7626L11.8477 18.7833H11.8707V18.7626Z" fill="#FF9A30"/>
<path d="M16.9507 11.3661V11.3454L16.9277 11.3661H16.9507Z" fill="#FF9A30"/>
<path d="M16.425 6.39441L9.77281 0.443369C9.45335 0.157578 9.0283 0 8.57652 0H1.69206C0.759056 0 0 0.679055 0 1.51372V17.2564C0 18.0911 0.759056 18.7701 1.69206 18.7701H11.8359L11.1591 18.1646H1.69206C1.13215 18.1646 0.676822 17.7573 0.676822 17.2564V1.51372C0.676822 1.01283 1.13215 0.605488 1.69206 0.605488H8.57652C8.84776 0.605488 9.10258 0.699945 9.29429 0.871449L15.9464 6.82249C16.1353 6.99157 16.2437 7.2256 16.2437 7.46461V10.7398L16.9206 11.3453V7.46461C16.9206 7.06045 16.7446 6.68035 16.425 6.39441Z" fill="#FF402F"/>
<path d="M16.9281 11.353L16.9366 11.3454L16.2598 10.7399" fill="white"/>
</svg>
