<svg width="9" height="11" viewBox="0 0 9 11" fill="none" xmlns="http://www.w3.org/2000/svg">
<path d="M7.95354 1.43091L7.19454 0.670994C6.98218 0.457554 6.7296 0.288349 6.45142 0.173172C6.17323 0.0579957 5.87496 -0.000865922 5.57388 -5.97046e-06H2.66667C2.0591 0.000721798 1.47663 0.242398 1.04702 0.672012C0.617404 1.10163 0.375728 1.6841 0.375 2.29166V8.70833C0.375728 9.3159 0.617404 9.89837 1.04702 10.328C1.47663 10.7576 2.0591 10.9993 2.66667 11H6.33334C6.9409 10.9993 7.52337 10.7576 7.95299 10.328C8.3826 9.89837 8.62428 9.3159 8.625 8.70833V3.05112C8.62574 2.75008 8.56678 2.45188 8.45152 2.17377C8.33627 1.89567 8.16701 1.64318 7.95354 1.43091ZM7.30546 2.07899C7.37047 2.14377 7.42868 2.21503 7.47917 2.29166H6.33334V1.14583C6.40985 1.19685 6.48122 1.25518 6.54646 1.31999L7.30546 2.07899ZM7.70834 8.70833C7.70834 9.073 7.56347 9.42274 7.30561 9.6806C7.04775 9.93847 6.69801 10.0833 6.33334 10.0833H2.66667C2.30199 10.0833 1.95226 9.93847 1.6944 9.6806C1.43653 9.42274 1.29167 9.073 1.29167 8.70833V2.29166C1.29167 1.92699 1.43653 1.57725 1.6944 1.31939C1.95226 1.06153 2.30199 0.916661 2.66667 0.916661H5.41667V2.29166C5.41667 2.53478 5.51325 2.76793 5.68515 2.93984C5.85706 3.11175 6.09022 3.20833 6.33334 3.20833H7.70834V8.70833ZM6.33334 4.125C6.45489 4.125 6.57147 4.17328 6.65743 4.25924C6.74338 4.34519 6.79167 4.46177 6.79167 4.58333C6.79167 4.70489 6.74338 4.82147 6.65743 4.90742C6.57147 4.99337 6.45489 5.04166 6.33334 5.04166H2.66667C2.54511 5.04166 2.42853 4.99337 2.34258 4.90742C2.25662 4.82147 2.20833 4.70489 2.20833 4.58333C2.20833 4.46177 2.25662 4.34519 2.34258 4.25924C2.42853 4.17328 2.54511 4.125 2.66667 4.125H6.33334ZM6.79167 6.41666C6.79167 6.53822 6.74338 6.6548 6.65743 6.74075C6.57147 6.82671 6.45489 6.875 6.33334 6.875H2.66667C2.54511 6.875 2.42853 6.82671 2.34258 6.74075C2.25662 6.6548 2.20833 6.53822 2.20833 6.41666C2.20833 6.2951 2.25662 6.17853 2.34258 6.09257C2.42853 6.00662 2.54511 5.95833 2.66667 5.95833H6.33334C6.45489 5.95833 6.57147 6.00662 6.65743 6.09257C6.74338 6.17853 6.79167 6.2951 6.79167 6.41666ZM6.70367 7.98096C6.77492 8.07897 6.80445 8.20121 6.78581 8.32094C6.76717 8.44067 6.70188 8.54815 6.60421 8.61987C6.13983 8.95077 5.58983 9.14063 5.02021 9.16666C4.68741 9.16506 4.36471 9.05212 4.10354 8.84583C3.95321 8.74271 3.89592 8.70833 3.78271 8.70833C3.47628 8.75575 3.18716 8.88105 2.94304 9.07225C2.84622 9.14127 2.72636 9.16996 2.60878 9.15226C2.49119 9.13457 2.38509 9.07187 2.31287 8.9774C2.24066 8.88293 2.20798 8.7641 2.22174 8.64599C2.2355 8.52788 2.29462 8.41974 2.38663 8.34441C2.7905 8.03088 3.27546 7.83913 3.78454 7.79166C4.08985 7.79654 4.38502 7.90207 4.62421 8.09187C4.73324 8.18994 4.87362 8.24599 5.02021 8.25C5.39498 8.22192 5.75536 8.09388 6.06384 7.87921C6.1622 7.80791 6.28484 7.77858 6.40481 7.79766C6.52479 7.81673 6.63228 7.88266 6.70367 7.98096Z" fill="#261B10"/>
</svg>
