<svg width="13" height="15" viewBox="0 0 13 15" fill="none" xmlns="http://www.w3.org/2000/svg">
<path d="M7.5 4.375V0.2875C8.07816 0.505835 8.60331 0.84457 9.04063 1.28125L11.2181 3.46C11.6553 3.8968 11.9943 4.42181 12.2125 5H8.125C7.95924 5 7.80027 4.93415 7.68306 4.81694C7.56585 4.69973 7.5 4.54076 7.5 4.375ZM12.5 6.55312V11.875C12.499 12.7035 12.1695 13.4978 11.5836 14.0836C10.9978 14.6694 10.2035 14.999 9.37501 15H3.125C2.2965 14.999 1.50222 14.6694 0.916388 14.0836C0.330551 13.4978 0.000992412 12.7035 0 11.875V3.125C0.000992412 2.2965 0.330551 1.50222 0.916388 0.916387C1.50222 0.330551 2.2965 0.000992411 3.125 0L5.94688 0C6.04875 0 6.14938 0.008125 6.25 0.015V4.375C6.25 4.87228 6.44755 5.34919 6.79918 5.70083C7.15081 6.05246 7.62772 6.25 8.125 6.25H12.485C12.4919 6.35063 12.5 6.45125 12.5 6.55312ZM7.5 11.875C7.5 11.7092 7.43416 11.5503 7.31695 11.4331C7.19974 11.3158 7.04076 11.25 6.875 11.25H3.75C3.58424 11.25 3.42527 11.3158 3.30806 11.4331C3.19085 11.5503 3.125 11.7092 3.125 11.875C3.125 12.0408 3.19085 12.1997 3.30806 12.3169C3.42527 12.4342 3.58424 12.5 3.75 12.5H6.875C7.04076 12.5 7.19974 12.4342 7.31695 12.3169C7.43416 12.1997 7.5 12.0408 7.5 11.875ZM9.37501 9.375C9.37501 9.20924 9.30916 9.05027 9.19195 8.93306C9.07474 8.81585 8.91577 8.75 8.75 8.75H3.75C3.58424 8.75 3.42527 8.81585 3.30806 8.93306C3.19085 9.05027 3.125 9.20924 3.125 9.375C3.125 9.54076 3.19085 9.69973 3.30806 9.81694C3.42527 9.93415 3.58424 10 3.75 10H8.75C8.91577 10 9.07474 9.93415 9.19195 9.81694C9.30916 9.69973 9.37501 9.54076 9.37501 9.375Z" fill="white"/>
</svg>
