<svg width="24" height="19" viewBox="0 0 24 19" fill="none" xmlns="http://www.w3.org/2000/svg">
<path d="M18.4873 5.23642C18.7961 4.88494 18.7961 4.31506 18.4873 3.96358C18.1784 3.61216 17.6776 3.61216 17.3687 3.96358L5.76873 17.1636C5.4599 17.5151 5.4599 18.0849 5.76873 18.4364C6.0776 18.7878 6.57841 18.7878 6.88728 18.4364L18.4873 5.23642Z" fill="#CED1D3"/>
<path fill-rule="evenodd" clip-rule="evenodd" d="M14.4831 5.97406C13.6992 5.68264 12.9004 5.5 12.1277 5.5C10.0405 5.5 7.76358 6.83242 6.10199 8.04184C5.25071 8.66146 4.52028 9.27952 4.00276 9.74242C3.74355 9.9742 3.53676 10.1681 3.39365 10.3049C3.3221 10.3734 3.26648 10.4277 3.22809 10.4655C3.20895 10.4843 3.19408 10.4991 3.18369 10.5094L3.17157 10.5216L3.16809 10.5251L3.16661 10.5266C2.99746 10.6974 2.90039 10.9427 2.90039 11.2C2.90039 11.4573 2.9972 11.7023 3.16629 11.8731L3.6913 11.2C3.16629 11.8731 3.16698 11.8738 3.16698 11.8738L3.16809 11.8749L3.17157 11.8784L3.18369 11.8906C3.19408 11.9009 3.20895 11.9157 3.22809 11.9345C3.26648 11.9723 3.3221 12.0266 3.39365 12.0951C3.53676 12.2319 3.74355 12.4258 4.00276 12.6576C4.52028 13.1205 5.25071 13.7385 6.10199 14.3582C6.30235 14.504 6.51158 14.6516 6.72839 14.7984L7.88565 13.4816C7.56754 13.2764 7.25577 13.0612 6.95433 12.8418C6.15698 12.2615 5.469 11.6795 4.98022 11.2424L4.93292 11.2L4.98022 11.1576C5.469 10.7205 6.15698 10.1385 6.95433 9.55816C7.8935 8.87458 8.93339 8.23156 9.95082 7.8079C9.03294 8.57194 8.43675 9.80674 8.43675 11.2C8.43675 11.6951 8.51205 12.1703 8.65035 12.6114L10.0226 11.0498C10.0881 9.84394 10.936 8.87908 11.9957 8.80462L14.4831 5.97406ZM3.16661 10.5266C3.16661 10.5266 3.16629 10.5269 3.6913 11.2L3.16661 10.5266Z" fill="#CED1D3"/>
<path d="M12.2589 13.5954C13.3186 13.5209 14.1665 12.5561 14.2319 11.3502L15.6042 9.78862C15.7425 10.2297 15.8178 10.7049 15.8178 11.2C15.8178 12.5933 15.2216 13.8281 14.3038 14.5921C15.3212 14.1684 16.3611 13.5254 17.3003 12.8418C18.0976 12.2615 18.7856 11.6795 19.2744 11.2424L19.3217 11.2L19.2744 11.1576C18.7856 10.7205 18.0976 10.1385 17.3003 9.55816C16.9988 9.3388 16.687 9.12358 16.3689 8.91844L17.5262 7.60162C17.743 7.74844 17.9522 7.89604 18.1526 8.04184C19.0039 8.66146 19.7343 9.27952 20.2518 9.74242C20.511 9.9742 20.7178 10.1681 20.8609 10.3049C20.9325 10.3734 20.9881 10.4277 21.0265 10.4655L21.0519 10.4905L21.0709 10.5094L21.083 10.5216L21.0865 10.5251L21.0876 10.5262C21.0876 10.5262 21.0883 10.5269 20.5633 11.2L21.088 11.8734L21.0865 11.8749L21.083 11.8784L21.0709 11.8906C21.0605 11.9009 21.0456 11.9157 21.0265 11.9345C20.9881 11.9723 20.9325 12.0266 20.8609 12.0951C20.7178 12.2319 20.511 12.4258 20.2518 12.6576C19.7343 13.1205 19.0039 13.7385 18.1526 14.3582C16.491 15.5676 14.2141 16.9 12.1269 16.9C11.3541 16.9 10.5554 16.7174 9.77148 16.4259L12.2589 13.5954Z" fill="#CED1D3"/>
<path d="M21.0891 11.8734C21.0891 11.8734 21.0895 11.8731 20.5645 11.2L21.0895 10.5269C21.2586 10.6977 21.3554 10.9427 21.3554 11.2C21.3554 11.4573 21.2583 11.7026 21.0891 11.8734Z" fill="#CED1D3"/>
</svg>
