<svg width="21" height="22" viewBox="0 0 21 22" fill="none" xmlns="http://www.w3.org/2000/svg">
<path d="M10.5259 0.324951L7.18142 2.12075L6.45589 2.93864L4.86327 3.36536L0.899414 5.4812V15.9182L10.5259 21.6612L20.0109 15.9182V5.4812L10.5259 0.324951Z" fill="#D6AB7F"/>
<path d="M4.86328 3.36522L14.1536 8.68149V10.8151L16.5248 9.51716V7.36576L7.18143 2.12061L4.86328 3.36522Z" fill="white"/>
<path d="M10.5261 21.8389C10.4907 21.8389 10.4553 21.8389 10.4376 21.8211L0.811135 16.0781C0.758048 16.0426 0.722656 15.9714 0.722656 15.9181V5.48113C0.722656 5.41001 0.758048 5.35666 0.811135 5.3211C0.864223 5.28554 0.935006 5.28554 0.988093 5.3211L10.6146 10.4774C10.7031 10.5307 10.7385 10.6374 10.6854 10.7263C10.6323 10.8152 10.5261 10.8507 10.4376 10.8152L1.07657 5.78339V15.8114L10.5261 21.4477L19.8341 15.8114V5.48113C19.8341 5.37444 19.9049 5.30332 20.0111 5.30332C20.1172 5.30332 20.188 5.37444 20.188 5.48113V15.9181C20.188 15.9892 20.1526 16.0426 20.0995 16.0781L10.6146 21.8211C10.5969 21.8389 10.5615 21.8389 10.5261 21.8389Z" fill="#62355C"/>
<g opacity="0.2">
<path d="M10.5264 21.6612L20.0113 15.9182V5.4812L10.5264 10.6552V21.6612Z" fill="#121519"/>
</g>
<path d="M4.86328 3.36534L7.09295 2.17407L4.86328 3.36534Z" fill="white"/>
<path d="M10.5261 21.8389C10.4907 21.8389 10.4553 21.8389 10.4376 21.8211L0.811135 16.0781C0.758048 16.0426 0.722656 15.9714 0.722656 15.9181V5.48113C0.722656 5.41001 0.758048 5.35667 0.811135 5.32111L4.77499 3.18748C4.86346 3.13414 4.96964 3.1697 5.02273 3.25861C5.07581 3.34751 5.04042 3.45419 4.95194 3.50753L1.07657 5.58781V15.8114L10.5261 21.4477L19.8341 15.8114V5.58781L10.5261 0.520458L7.25239 2.2807C7.16391 2.33404 7.05774 2.29848 7.00465 2.20957C6.95156 2.12067 6.98696 2.01399 7.07544 1.96065L10.4376 0.164854C10.4907 0.129294 10.5615 0.129294 10.5969 0.164854L20.0818 5.32111C20.1349 5.35667 20.1703 5.41001 20.1703 5.48113V15.9181C20.1703 15.9892 20.1349 16.0426 20.0818 16.0781L10.5969 21.8211C10.5969 21.8389 10.5615 21.8389 10.5261 21.8389Z" fill="#62355C"/>
<path d="M14.1538 10.9931C14.1184 10.9931 14.083 10.9931 14.0653 10.9753C14.0122 10.9397 13.9768 10.8864 13.9768 10.8153V8.77055L4.775 3.50763C4.72192 3.47207 4.68652 3.41873 4.68652 3.3476C4.68652 3.27648 4.72192 3.22314 4.775 3.18758L7.07546 1.96075C7.12854 1.92519 7.19933 1.92519 7.25241 1.96075L16.6135 7.2059C16.6666 7.24146 16.702 7.2948 16.702 7.36592V9.51732C16.702 9.58844 16.6666 9.64178 16.6135 9.67734L14.2423 10.9753C14.2246 10.9931 14.1892 10.9931 14.1538 10.9931ZM5.23509 3.36538L14.2423 8.52163C14.2953 8.55719 14.3307 8.61053 14.3307 8.68165V10.5308L16.3481 9.42842V7.4726L7.18163 2.33414L5.23509 3.36538Z" fill="#62355C"/>
<path d="M10.5261 21.8389C10.4907 21.8389 10.4553 21.8389 10.4376 21.8211L0.811135 16.0781C0.758048 16.0426 0.722656 15.9714 0.722656 15.9181V5.48113C0.722656 5.41001 0.758048 5.35666 0.811135 5.3211C0.864223 5.28554 0.935006 5.28554 0.988093 5.3211L10.5261 10.4418L13.9945 8.5571C14.083 8.50376 14.1891 8.53932 14.2422 8.62822C14.2953 8.71712 14.2599 8.8238 14.1715 8.87714L10.6146 10.8152C10.5615 10.8507 10.4907 10.8507 10.4553 10.8152L1.07657 5.78339V15.8114L10.5261 21.4477L19.8341 15.8114V5.78339L16.6312 7.52585C16.5427 7.57919 16.4365 7.54363 16.3834 7.45473C16.3303 7.36582 16.3657 7.25914 16.4542 7.2058L19.9226 5.3211C19.9757 5.28554 20.0465 5.28554 20.0995 5.3211C20.1526 5.35666 20.188 5.41001 20.188 5.48113V15.9181C20.188 15.9892 20.1526 16.0426 20.0995 16.0781L10.6146 21.8211C10.5969 21.8389 10.5615 21.8389 10.5261 21.8389Z" fill="#62355C"/>
<path d="M4.86348 3.54317C4.7927 3.54317 4.73961 3.50761 4.70422 3.45427C4.68652 3.43649 4.68652 3.40093 4.68652 3.36537C4.68652 3.29425 4.72192 3.24091 4.775 3.20535L6.98698 2.01408C7.07546 1.96074 7.18163 1.9963 7.23472 2.0852C7.25241 2.10298 7.25241 2.13854 7.25241 2.1741C7.25241 2.24522 7.21702 2.29856 7.16394 2.33412L4.95196 3.52539C4.93426 3.52539 4.89887 3.54317 4.86348 3.54317Z" fill="#62355C"/>
<path d="M10.5266 21.8388C10.4204 21.8388 10.3496 21.7677 10.3496 21.661V10.6551C10.3496 10.5484 10.4204 10.4773 10.5266 10.4773C10.6327 10.4773 10.7035 10.5484 10.7035 10.6551V21.661C10.7035 21.7677 10.6327 21.8388 10.5266 21.8388Z" fill="#62355C"/>
</svg>
