<svg width="18" height="18" viewBox="0 0 18 18" fill="none" xmlns="http://www.w3.org/2000/svg">
<path d="M10.5 3.5L14.5 7.5M13 15H17M5 17L15.5 6.5C15.7626 6.23735 15.971 5.92555 16.1131 5.58239C16.2553 5.23923 16.3284 4.87143 16.3284 4.5C16.3284 4.12856 16.2553 3.76077 16.1131 3.4176C15.971 3.07444 15.7626 2.76264 15.5 2.5C15.2374 2.23735 14.9256 2.02901 14.5824 1.88687C14.2392 1.74473 13.8714 1.67157 13.5 1.67157C13.1286 1.67157 12.7608 1.74473 12.4176 1.88687C12.0744 2.02901 11.7626 2.23735 11.5 2.5L1 13V17H5Z" stroke="#B1B1B1" stroke-width="2" stroke-linecap="round" stroke-linejoin="round"/>
</svg>
