<svg width="115" height="115" viewBox="0 0 115 115" fill="none" xmlns="http://www.w3.org/2000/svg">
<path d="M57.25 0C26.2148 0 0 26.2148 0 57.25C0 88.2852 26.2148 114.5 57.25 114.5C88.2852 114.5 114.5 88.2852 114.5 57.25C114.5 26.2148 88.2852 0 57.25 0ZM57.25 28.625C67.1371 28.625 74.425 35.9072 74.425 45.8C74.425 55.6928 67.1371 62.975 57.25 62.975C47.3686 62.975 40.075 55.6928 40.075 45.8C40.075 35.9072 47.3686 28.625 57.25 28.625ZM28.0182 84.5697C33.1535 77.0127 41.7181 71.9747 51.525 71.9747H62.975C72.7877 71.9747 81.3465 77.0127 86.4819 84.5697C79.1653 92.4015 68.7859 97.325 57.25 97.325C45.7141 97.325 35.3347 92.4015 28.0182 84.5697Z" fill="#E9EBEF"/>
</svg>
