<svg width="30" height="30" viewBox="0 0 30 30" fill="none" xmlns="http://www.w3.org/2000/svg">
<path d="M25.8516 3.22692L28.0812 2.03564L25.8516 3.22692Z" fill="white"/>
<g clip-path="url(#clip0_408_4050)">
<path d="M18.4824 1.65724L14.1805 3.85309L14.2495 3.89932L14.1805 3.85309L9.64864 1.51855L0.423828 7.04285L4.70267 9.51608V19.7557L14.1805 14.6937L23.5204 19.7557V9.51608L28.0293 6.90417L18.4824 1.65724Z" fill="white"/>
<path d="M4.70224 19.9868C4.65624 19.9868 4.61023 19.9868 4.58722 19.9637C4.51821 19.9175 4.4722 19.8482 4.4722 19.7557V9.63167L0.308382 7.22779C0.239368 7.20468 0.193359 7.11222 0.193359 7.04288C0.193359 6.97354 0.239368 6.88108 0.308382 6.83485L9.53319 1.31055C9.60221 1.26432 9.69422 1.26432 9.76324 1.31055L14.2031 3.59886L18.3669 1.44924C18.4359 1.40301 18.505 1.42612 18.574 1.44924L28.1208 6.69616C28.1899 6.74239 28.2359 6.81173 28.2359 6.90419C28.2359 6.99665 28.1899 7.06599 28.1208 7.11222L23.727 9.65478V19.7788C23.727 19.8713 23.681 19.9406 23.612 19.9868C23.5429 20.0331 23.4509 20.0331 23.3819 19.9868L14.1801 14.9479L4.81727 19.9637C4.77126 19.9868 4.74825 19.9868 4.70224 19.9868ZM0.883495 7.04288L4.81727 9.30807C4.88628 9.3543 4.93229 9.42364 4.93229 9.5161V19.3859L14.0651 14.4857C14.1341 14.4394 14.2261 14.4394 14.2721 14.4857L23.2669 19.3859V9.5161C23.2669 9.42364 23.3129 9.3543 23.3819 9.30807L27.5687 6.90419L18.4589 1.93463L14.4562 3.96869C14.4562 3.9918 14.4332 3.9918 14.4332 4.01491C14.3641 4.13049 14.2261 4.1536 14.1111 4.08426L14.0651 4.03803H14.0421L9.64821 1.77283L0.883495 7.04288Z" fill="#62355C"/>
<g opacity="0.1">
<path d="M14.1797 3.85303L23.5195 9.51601V19.7556L14.1797 14.6936V3.85303Z" fill="#121519"/>
</g>
<g opacity="0.2">
<path d="M14.181 3.85303L4.70312 9.51601V19.7556L14.181 14.6936V3.85303Z" fill="#121519"/>
</g>
<path d="M23.5191 19.9868C23.4731 19.9868 23.4501 19.9868 23.4041 19.9637L14.0642 14.8785C13.9952 14.8323 13.9492 14.763 13.9492 14.6705V3.85305C13.9492 3.76059 13.9952 3.69125 14.0642 3.64502C14.1333 3.59879 14.2253 3.59879 14.2943 3.64502L23.6341 9.30801C23.7031 9.35424 23.7491 9.42358 23.7491 9.51604V19.7788C23.7491 19.8712 23.7031 19.9405 23.6341 19.9868C23.5881 19.9868 23.5421 19.9868 23.5191 19.9868ZM14.4093 14.5549L23.2891 19.3858V9.63161L14.4093 4.26911V14.5549Z" fill="#62355C"/>
<path d="M4.7027 19.9868C4.65669 19.9868 4.61068 19.9868 4.58768 19.9637C4.51867 19.9174 4.47266 19.8481 4.47266 19.7556V9.51604C4.47266 9.42358 4.51867 9.35424 4.58768 9.30801L14.0655 3.64502C14.1346 3.59879 14.2266 3.59879 14.2956 3.64502C14.3646 3.69125 14.4106 3.76059 14.4106 3.85305V14.6936C14.4106 14.7861 14.3646 14.8554 14.2956 14.9016L4.81772 19.9868C4.77171 19.9868 4.74871 19.9868 4.7027 19.9868ZM4.93275 9.63161V19.3858L13.9505 14.5549V4.26911L4.93275 9.63161Z" fill="#62355C"/>
<path d="M14.181 14.5783L10.2012 13.0065L4.70312 9.49316V19.7559L14.181 25.4189L23.5208 19.7559V9.49316L19.311 12.6367L14.181 14.5783Z" fill="#D6AB7F"/>
<path d="M14.1806 25.65C14.1346 25.65 14.0885 25.65 14.0655 25.6269L4.58768 19.9639C4.51867 19.9177 4.47266 19.8484 4.47266 19.7559V9.49319C4.47266 9.40073 4.51867 9.33139 4.58768 9.28516C4.65669 9.23893 4.74871 9.23893 4.81772 9.28516L10.3158 12.7985L14.2036 14.3472L19.2186 12.4287L23.3824 9.30827C23.4514 9.26205 23.5434 9.23893 23.6124 9.28516C23.6814 9.33139 23.7274 9.40073 23.7274 9.49319V19.7559C23.7274 19.8484 23.6814 19.9177 23.6124 19.9639L14.2726 25.6269C14.2726 25.6269 14.2266 25.65 14.1806 25.65ZM4.93275 19.6403L14.1806 25.1646L23.2904 19.6403V9.95547L19.4486 12.8216C19.4256 12.8447 19.4026 12.8447 19.4026 12.8447L14.2726 14.8095C14.2266 14.8326 14.1576 14.8326 14.1115 14.8095L10.1318 13.2377C10.1088 13.2377 10.1088 13.2146 10.0858 13.2146L4.93275 9.93236V19.6403Z" fill="#62355C"/>
<g opacity="0.1">
<path d="M14.1797 25.4189L23.5195 19.7559V9.49316L18.6426 12.9834L14.1797 14.5783V25.4189Z" fill="#121519"/>
</g>
<path d="M14.1793 25.6496C14.1333 25.6496 14.1103 25.6496 14.0642 25.6265C13.9952 25.5802 13.9492 25.5109 13.9492 25.4184V14.5779C13.9492 14.4854 14.0182 14.393 14.1103 14.3698L18.5501 12.775L23.3811 9.30783C23.4501 9.2616 23.5421 9.2616 23.6111 9.28471C23.6801 9.33094 23.7261 9.40028 23.7261 9.49274V19.7555C23.7261 19.8479 23.6801 19.9173 23.6111 19.9635L14.2713 25.6265C14.2713 25.6265 14.2253 25.6496 14.1793 25.6496ZM14.4093 14.7397V25.0024L23.2891 19.6399V9.95503L18.7802 13.1679C18.7572 13.191 18.7342 13.191 18.7342 13.191L14.4093 14.7397Z" fill="#62355C"/>
<g opacity="0.1">
<path d="M6.77353 16.1269L14.181 20.3337V14.5783L9.94816 13.1452L4.70312 9.49316L6.77353 16.1269Z" fill="#121519"/>
</g>
<path d="M0.423828 11.9664L4.70267 9.49316L14.1805 14.5783L9.62564 17.1902L0.423828 11.9664Z" fill="white"/>
<g opacity="0.15">
<path d="M18.4585 18.7156L23.5195 16.1037V9.51611L19.4017 12.5672L14.2487 14.5319L14.1797 14.5781L18.4585 18.7156Z" fill="#121519"/>
</g>
<path d="M14.1797 14.5781L18.4585 17.0513L28.0284 12.1049L23.5195 9.51611L14.1797 14.5781Z" fill="white"/>
<path d="M9.62521 17.4212C9.5792 17.4212 9.5562 17.4212 9.51019 17.3981L0.308382 12.1743C0.239368 12.128 0.193359 12.0587 0.193359 11.9662C0.193359 11.8738 0.239368 11.8044 0.308382 11.7582L4.58722 9.30811C4.65624 9.26188 4.74825 9.26188 4.81727 9.30811L14.2951 14.3932C14.3641 14.4395 14.4102 14.5088 14.4102 14.6013C14.4102 14.6937 14.3641 14.7631 14.2951 14.8093L9.74024 17.3981C9.71723 17.4212 9.67122 17.4212 9.62521 17.4212ZM0.883495 11.9662L9.62521 16.9358L13.697 14.6013L4.70225 9.77039L0.883495 11.9662Z" fill="#62355C"/>
<path d="M18.4581 17.2827C18.4121 17.2827 18.3891 17.2827 18.3431 17.2596L14.0642 14.7863C13.9952 14.7401 13.9492 14.6708 13.9492 14.5783C13.9492 14.4859 13.9952 14.4165 14.0642 14.3703L23.4041 9.28516C23.4731 9.23893 23.5651 9.23893 23.6341 9.28516L28.143 11.8971C28.212 11.9433 28.258 12.0126 28.258 12.1051C28.258 12.1976 28.212 12.2669 28.143 12.3131L18.5731 17.2596C18.5271 17.2827 18.5041 17.2827 18.4581 17.2827ZM14.6624 14.5783L18.4811 16.7742L27.5679 12.082L23.4961 9.77056L14.6624 14.5783Z" fill="#62355C"/>
</g>
<defs>
<clipPath id="clip0_408_4050">
<rect width="29.4458" height="29.5862" fill="white" transform="translate(0.193359)"/>
</clipPath>
</defs>
</svg>
