<svg width="14" height="14" viewBox="0 0 14 14" fill="none" xmlns="http://www.w3.org/2000/svg">
<g clip-path="url(#clip0_656_1159)">
<path d="M7.00005 6.61112C7.53846 6.61112 8.06477 6.45146 8.51244 6.15234C8.96011 5.85322 9.30902 5.42807 9.51506 4.93064C9.7211 4.43322 9.77501 3.88588 9.66997 3.35782C9.56493 2.82976 9.30567 2.3447 8.92496 1.96399C8.54425 1.58328 8.05919 1.32402 7.53113 1.21898C7.00307 1.11394 6.45573 1.16785 5.9583 1.37389C5.46088 1.57993 5.03573 1.92884 4.73661 2.37651C4.43749 2.82418 4.27783 3.35049 4.27783 3.8889C4.27783 4.61087 4.56464 5.30328 5.07515 5.8138C5.58567 6.32431 6.27808 6.61112 7.00005 6.61112ZM7.00005 1.94445C7.38463 1.94445 7.76057 2.05849 8.08033 2.27215C8.40009 2.48581 8.64932 2.78949 8.79649 3.14479C8.94366 3.50009 8.98216 3.89105 8.90714 4.26824C8.83211 4.64542 8.64692 4.99189 8.37498 5.26382C8.10305 5.53576 7.75658 5.72095 7.3794 5.79598C7.00221 5.871 6.61125 5.8325 6.25595 5.68533C5.90065 5.53816 5.59697 5.28893 5.38331 4.96917C5.16965 4.64941 5.05561 4.27347 5.05561 3.8889C5.05561 3.3732 5.26047 2.87862 5.62512 2.51397C5.98978 2.14931 6.48436 1.94445 7.00005 1.94445Z" fill="#261B10"/>
<path d="M11.8493 9.47722C11.2257 8.81805 10.4741 8.29301 9.64066 7.93419C8.80718 7.57536 7.90927 7.39029 7.00184 7.39029C6.0944 7.39029 5.19649 7.57536 4.36302 7.93419C3.52954 8.29301 2.778 8.81805 2.15434 9.47722C2.01913 9.62164 1.94403 9.81216 1.94434 10.01V12.0555C1.94434 12.2618 2.02628 12.4597 2.17214 12.6055C2.318 12.7514 2.51584 12.8333 2.72211 12.8333H11.2777C11.4839 12.8333 11.6818 12.7514 11.8276 12.6055C11.9735 12.4597 12.0554 12.2618 12.0554 12.0555V10.01C12.0568 9.81269 11.9831 9.62224 11.8493 9.47722ZM11.2777 12.0555H2.72211V10.0061C3.27326 9.42576 3.93673 8.96362 4.67214 8.64783C5.40756 8.33203 6.19954 8.16918 6.99989 8.16918C7.80024 8.16918 8.59223 8.33203 9.32764 8.64783C10.0631 8.96362 10.7265 9.42576 11.2777 10.0061V12.0555Z" fill="#261B10"/>
</g>
<defs>
<clipPath id="clip0_656_1159">
<rect width="14" height="14" fill="white"/>
</clipPath>
</defs>
</svg>
