<svg width="20" height="20" viewBox="0 0 20 20" fill="none" xmlns="http://www.w3.org/2000/svg">
<path d="M17.0711 2.92895C20.9764 6.8343 20.9764 13.1657 17.0711 17.0711C13.1657 20.9764 6.83428 20.9764 2.92893 17.0711C-0.976418 13.1657 -0.976418 6.8343 2.92893 2.92895C6.83428 -0.976403 13.1657 -0.976403 17.0711 2.92895ZM13.5355 6.46448C13.4074 6.33633 13.2371 6.25893 13.0563 6.24658C12.8755 6.23423 12.6963 6.28777 12.5519 6.39731L12.4749 6.46448L10 8.93935L7.52513 6.46448C7.39072 6.33016 7.21033 6.25186 7.02042 6.24541C6.8305 6.23896 6.64522 6.30483 6.50201 6.42973C6.3588 6.55463 6.26833 6.72923 6.24889 6.91825C6.22946 7.10728 6.28249 7.29664 6.39729 7.44807L6.46447 7.52514L8.93934 10L6.46447 12.4749C6.33014 12.6093 6.25184 12.7897 6.24539 12.9796C6.23894 13.1695 6.30482 13.3548 6.42971 13.498C6.55461 13.6412 6.72921 13.7317 6.91824 13.7511C7.10726 13.7706 7.29662 13.7175 7.44805 13.6027L7.52513 13.5355L10 11.0607L12.4749 13.5355C12.6093 13.6699 12.7897 13.7482 12.9796 13.7546C13.1695 13.7611 13.3548 13.6952 13.498 13.5703C13.6412 13.4454 13.7317 13.2708 13.7511 13.0818C13.7705 12.8928 13.7175 12.7034 13.6027 12.552L13.5355 12.4749L11.0607 10L13.5355 7.52514C13.6762 7.38449 13.7552 7.19372 13.7552 6.99481C13.7552 6.7959 13.6762 6.60513 13.5355 6.46448Z" fill="#B7BABE"/>
</svg>
