<svg width="11" height="11" viewBox="0 0 11 11" fill="none" xmlns="http://www.w3.org/2000/svg">
<g clip-path="url(#clip0_656_1193)">
<path d="M8.70833 0.458332H2.29167C1.6841 0.45906 1.10163 0.700736 0.672017 1.13035C0.242404 1.55996 0.000727768 2.14243 0 2.75L0 6.41666C0.000727768 7.02423 0.242404 7.6067 0.672017 8.03631C1.10163 8.46592 1.6841 8.7076 2.29167 8.70833H5.04167V9.62499H3.20833C3.08678 9.62499 2.9702 9.67328 2.88424 9.75924C2.79829 9.84519 2.75 9.96177 2.75 10.0833C2.75 10.2049 2.79829 10.3215 2.88424 10.4074C2.9702 10.4934 3.08678 10.5417 3.20833 10.5417H7.79167C7.91322 10.5417 8.0298 10.4934 8.11576 10.4074C8.20171 10.3215 8.25 10.2049 8.25 10.0833C8.25 9.96177 8.20171 9.84519 8.11576 9.75924C8.0298 9.67328 7.91322 9.62499 7.79167 9.62499H5.95833V8.70833H8.70833C9.3159 8.7076 9.89837 8.46592 10.328 8.03631C10.7576 7.6067 10.9993 7.02423 11 6.41666V2.75C10.9993 2.14243 10.7576 1.55996 10.328 1.13035C9.89837 0.700736 9.3159 0.45906 8.70833 0.458332ZM10.0833 6.41666C10.0833 6.78133 9.93847 7.13107 9.68061 7.38893C9.42274 7.6468 9.07301 7.79166 8.70833 7.79166H2.29167C1.92699 7.79166 1.57726 7.6468 1.31939 7.38893C1.06153 7.13107 0.916667 6.78133 0.916667 6.41666V2.75C0.916667 2.38533 1.06153 2.03559 1.31939 1.77773C1.57726 1.51986 1.92699 1.375 2.29167 1.375H8.70833C9.07301 1.375 9.42274 1.51986 9.68061 1.77773C9.93847 2.03559 10.0833 2.38533 10.0833 2.75V6.41666ZM9.16667 4.58333C9.16667 4.70489 9.11838 4.82147 9.03242 4.90742C8.94647 4.99337 8.82989 5.04166 8.70833 5.04166H7.34938L6.57021 6.2127C6.52821 6.27565 6.47128 6.32722 6.4045 6.36281C6.33772 6.3984 6.26317 6.4169 6.1875 6.41666C6.17788 6.41666 6.16825 6.41666 6.15908 6.41666C6.07889 6.41172 6.00141 6.38579 5.9344 6.34147C5.86739 6.29714 5.81321 6.23598 5.77729 6.16412L4.75567 4.1195L4.27717 4.83771C4.2353 4.90046 4.17859 4.95191 4.11207 4.98749C4.04555 5.02307 3.97127 5.04167 3.89583 5.04166H2.29167C2.17011 5.04166 2.05353 4.99337 1.96758 4.90742C1.88162 4.82147 1.83333 4.70489 1.83333 4.58333C1.83333 4.46177 1.88162 4.34519 1.96758 4.25924C2.05353 4.17329 2.17011 4.125 2.29167 4.125H3.65063L4.42979 2.95396C4.4739 2.88638 4.53528 2.83183 4.60757 2.79597C4.67986 2.76011 4.76043 2.74424 4.84092 2.75C4.92111 2.75494 4.99859 2.78087 5.0656 2.82519C5.13261 2.86952 5.18679 2.93068 5.22271 3.00254L6.24433 5.04625L6.72283 4.32804C6.76481 4.26545 6.82156 4.21419 6.88808 4.17877C6.95459 4.14335 7.02881 4.12488 7.10417 4.125H8.70833C8.82989 4.125 8.94647 4.17329 9.03242 4.25924C9.11838 4.34519 9.16667 4.46177 9.16667 4.58333Z" fill="#261B10"/>
</g>
<defs>
<clipPath id="clip0_656_1193">
<rect width="11" height="11" fill="white"/>
</clipPath>
</defs>
</svg>
