<svg width="15" height="15" viewBox="0 0 15 15" fill="none" xmlns="http://www.w3.org/2000/svg">
<path d="M0.312726 8.50183C-0.0265757 8.00265 -0.0944009 7.36709 0.131927 6.80754C0.637749 5.77568 1.4851 4.95072 2.53013 4.47272C3.28674 4.09646 4.10629 3.86311 4.94758 3.78431C4.58101 4.23539 4.21403 4.71666 3.84663 5.22822C3.09892 6.36047 2.45888 7.56026 1.93491 8.81187L1.70938 9.3176C1.14442 9.27085 0.630961 8.97096 0.312726 8.50183ZM1.17198 11.1262C0.63219 11.8715 0.244755 12.716 0.0319156 13.6114C-0.10078 14.1931 0.263247 14.7723 0.845029 14.905C1.00336 14.9411 1.16777 14.9411 1.3261 14.9049C2.22006 14.6917 3.06325 14.3045 3.80757 13.7655C4.53639 13.037 4.53668 11.8556 3.80819 11.1268C3.07972 10.398 1.89834 10.3977 1.16953 11.1262H1.17198ZM6.10321 12.9776L5.59376 13.2038V13.3865C5.59499 13.8241 5.77023 14.2432 6.08086 14.5514C6.37633 14.8388 6.77213 14.9997 7.18429 15C8.64868 14.9789 9.836 13.6456 10.4592 12.4042C10.8409 11.636 11.0751 10.8029 11.1494 9.94825C10.6938 10.321 10.2052 10.6938 9.68376 11.0666C8.55195 11.8145 7.35233 12.4543 6.10073 12.9777H6.10321V12.9776ZM14.9132 1.85706C14.8306 4.56155 12.8834 7.2437 8.95995 10.0582C7.89224 10.7503 6.76587 11.3474 5.59376 11.8426V11.4928C5.58797 10.2942 4.61779 9.32401 3.41923 9.31825H3.06945C3.56576 8.14611 4.16387 7.01974 4.85693 5.95206C7.66454 2.03786 10.3423 0.0882196 13.0425 0C14.3882 0 14.9132 0.547986 14.9132 1.85706ZM11.1854 5.27978C11.1854 4.42195 10.49 3.72653 9.63218 3.72653C8.77432 3.72653 8.07892 4.42193 8.07892 5.27978C8.07892 6.1376 8.77432 6.83303 9.63218 6.83303C10.49 6.83303 11.1854 6.1376 11.1854 5.27978Z" fill="white"/>
</svg>
