<svg width="15" height="15" viewBox="0 0 15 15" fill="none" xmlns="http://www.w3.org/2000/svg">
<path d="M7.49226 0.416687C3.58227 0.416687 0.416016 3.59002 0.416016 7.50002C0.416016 11.41 3.58227 14.5834 7.49226 14.5834C11.4093 14.5834 14.5827 11.41 14.5827 7.50002C14.5827 3.59002 11.4093 0.416687 7.49226 0.416687ZM10.3327 10.3334C10.2672 10.399 10.1893 10.4511 10.1036 10.4867C10.0179 10.5222 9.92608 10.5405 9.83331 10.5405C9.74054 10.5405 9.64868 10.5222 9.56299 10.4867C9.4773 10.4511 9.39946 10.399 9.33393 10.3334L7.00352 8.00294C6.93659 7.93733 6.88334 7.8591 6.84686 7.77277C6.81039 7.68645 6.7914 7.59374 6.79101 7.50002V4.66669C6.79101 4.2771 7.10977 3.95835 7.49935 3.95835C7.88893 3.95835 8.20768 4.2771 8.20768 4.66669V7.2096L10.3327 9.3346C10.6089 9.61085 10.6089 10.0571 10.3327 10.3334Z" fill="#677788"/>
</svg>
