<?xml version="1.0" encoding="utf-8"?>
<!-- Generator: Adobe Illustrator 26.1.0, SVG Export Plug-In . SVG Version: 6.00 Build 0)  -->
<svg version="1.1" id="Calque_1" xmlns="http://www.w3.org/2000/svg" xmlns:xlink="http://www.w3.org/1999/xlink" x="0px" y="0px"
	 viewBox="0 0 258.11 208.72" style="enable-background:new 0 0 258.11 208.72;" xml:space="preserve">
<style type="text/css">
	.st0{fill:#F9B233;}
	.st1{fill:#261B10;}
</style>
<g>
	<polygon class="st0" points="144.55,53.5 119.5,10.12 105.3,18.32 137.49,74.08 150.17,66.76 151.7,65.88 172.78,53.71 
		165.63,41.33 	"/>
	<rect x="144.46" y="72.5" transform="matrix(0.866 -0.5 0.5 0.866 -18.2659 93.2293)" class="st0" width="40.75" height="16.4"/>
	<polygon class="st0" points="107.05,73.05 105.52,73.94 84.44,86.11 91.59,98.48 112.67,86.31 137.72,129.7 151.92,121.49 
		119.73,65.73 	"/>
	<rect x="72.01" y="50.91" transform="matrix(0.866 -0.5 0.5 0.866 -17.1791 54.1109)" class="st0" width="40.75" height="16.4"/>
	<polygon class="st1" points="11.61,157.5 24.6,157.5 24.6,166.92 24.6,196.9 11.61,196.9 11.61,166.92 6.61,166.92 6.61,157.5 	"/>
	<polygon class="st1" points="67.73,144.79 54.45,144.79 54.45,196.9 66.3,196.9 67.73,196.9 87.43,196.9 87.43,185.34 
		67.73,185.34 	"/>
	<path class="st1" d="M129.26,176.63c0-3.66-0.79-7.05-2.36-10.17c-1.57-3.12-3.83-5.63-6.78-7.53c-2.95-1.9-6.54-2.85-10.78-2.85
		c-3.19,0-6.04,0.56-8.56,1.68c-2.52,1.12-4.65,2.63-6.39,4.53c-1.74,1.9-3.07,4.08-4,6.53c-0.93,2.45-1.39,5.01-1.39,7.67v1.43
		c0,2.57,0.46,5.07,1.39,7.5c0.93,2.43,2.27,4.62,4.03,6.57c1.76,1.95,3.93,3.5,6.5,4.64c2.57,1.14,5.52,1.71,8.85,1.71
		c3.38,0,6.36-0.6,8.96-1.78c2.59-1.19,4.73-2.83,6.42-4.93c1.69-2.09,2.82-4.47,3.39-7.14H116.7c-0.48,1.05-1.3,1.88-2.46,2.5
		c-1.17,0.62-2.65,0.93-4.46,0.93c-2.05,0-3.71-0.43-5-1.28c-1.29-0.86-2.24-2.08-2.85-3.68c-0.26-0.67-0.45-1.4-0.6-2.18h27.94
		V176.63z M101.28,173.78c0.17-0.93,0.4-1.78,0.71-2.53c0.67-1.59,1.63-2.78,2.89-3.57c1.26-0.79,2.75-1.18,4.46-1.18
		c1.76,0,3.22,0.4,4.39,1.21c1.16,0.81,2.04,1.99,2.64,3.53c0.29,0.76,0.51,1.61,0.66,2.53H101.28z"/>
	<path class="st1" d="M165.84,163.92c-1.5-2.38-3.67-4.16-6.5-5.35c-2.83-1.19-6.27-1.79-10.32-1.79c-1.43,0-2.99,0.03-4.68,0.07
		c-1.69,0.05-3.32,0.12-4.89,0.21c-1.57,0.1-2.93,0.19-4.07,0.29v10.85c1.62-0.09,3.4-0.19,5.35-0.29c1.95-0.1,3.81-0.17,5.57-0.21
		c1.76-0.05,3.09-0.07,4-0.07c1.9,0,3.27,0.44,4.1,1.32c0.81,0.86,1.22,2.16,1.24,3.89h-6.2c-3.57,0-6.73,0.43-9.49,1.28
		c-2.76,0.86-4.93,2.2-6.5,4.03c-1.57,1.83-2.36,4.22-2.36,7.17c0,2.62,0.61,4.87,1.82,6.75c1.21,1.88,2.89,3.32,5.03,4.32
		c2.14,1,4.59,1.5,7.35,1.5c2.76,0,5.08-0.5,6.96-1.5c1.88-1,3.36-2.44,4.43-4.32c0.45-0.78,0.8-1.66,1.11-2.59v7.41h10.28v-23.91
		C168.09,169.33,167.34,166.31,165.84,163.92 M155.67,182.34c-0.1,1.76-0.43,3.14-1,4.14c-0.57,1-1.3,1.7-2.18,2.11
		c-0.88,0.4-1.89,0.61-3.03,0.61c-1.76,0-3.12-0.44-4.07-1.32c-0.95-0.88-1.43-2.03-1.43-3.46c0-1.47,0.48-2.65,1.43-3.53
		c0.95-0.88,2.31-1.32,4.07-1.32h6.21V182.34z"/>
	<path class="st1" d="M204.17,176.24c-2.74-2.26-6.63-3.65-11.67-4.18l-2.71-0.29c-1.95-0.24-3.37-0.6-4.25-1.07
		c-0.88-0.48-1.32-1.21-1.32-2.21c0-0.95,0.47-1.69,1.39-2.21c0.93-0.52,2.13-0.79,3.61-0.79c2.05,0,3.62,0.42,4.71,1.25
		c1.09,0.83,1.74,1.85,1.93,3.03h11.42c-0.19-4.33-1.9-7.65-5.14-9.96c-3.24-2.31-7.5-3.46-12.78-3.46c-3.24,0-6.12,0.48-8.64,1.43
		c-2.52,0.95-4.5,2.37-5.93,4.25c-1.43,1.88-2.14,4.27-2.14,7.17c0,3.38,1.19,6.19,3.57,8.42c2.38,2.24,6.09,3.62,11.14,4.14
		l2.71,0.29c2.52,0.24,4.26,0.68,5.21,1.32c0.95,0.64,1.43,1.46,1.43,2.46c0,1.14-0.61,1.96-1.82,2.46
		c-1.21,0.5-2.65,0.75-4.32,0.75c-2.33,0-4.14-0.43-5.42-1.28c-1.29-0.86-2.02-1.88-2.21-3.07h-11.42c0.24,4.28,2,7.6,5.28,9.96
		c3.28,2.36,7.78,3.53,13.49,3.53c3.71,0,6.91-0.52,9.6-1.57c2.69-1.05,4.76-2.55,6.21-4.5c1.45-1.95,2.18-4.28,2.18-7
		C208.28,181.46,206.91,178.5,204.17,176.24"/>
	<path class="st1" d="M250.61,176.63c0-3.66-0.79-7.05-2.36-10.17c-1.57-3.12-3.83-5.63-6.78-7.53c-2.95-1.9-6.54-2.85-10.78-2.85
		c-3.19,0-6.04,0.56-8.56,1.68c-2.52,1.12-4.65,2.63-6.39,4.53c-1.74,1.9-3.07,4.08-4,6.53c-0.93,2.45-1.39,5.01-1.39,7.67v1.43
		c0,2.57,0.46,5.07,1.39,7.5c0.93,2.43,2.27,4.62,4.03,6.57c1.76,1.95,3.93,3.5,6.5,4.64c2.57,1.14,5.52,1.71,8.85,1.71
		c3.38,0,6.36-0.6,8.96-1.78c2.59-1.19,4.73-2.83,6.43-4.93c1.69-2.09,2.82-4.47,3.39-7.14h-11.85c-0.48,1.05-1.3,1.88-2.46,2.5
		c-1.17,0.62-2.65,0.93-4.46,0.93c-2.05,0-3.71-0.43-5-1.28c-1.29-0.86-2.24-2.08-2.85-3.68c-0.26-0.67-0.45-1.4-0.6-2.18h27.94
		V176.63z M222.63,173.78c0.17-0.93,0.4-1.78,0.71-2.53c0.67-1.59,1.63-2.78,2.89-3.57c1.26-0.79,2.75-1.18,4.46-1.18
		c1.76,0,3.22,0.4,4.39,1.21c1.16,0.81,2.05,1.99,2.64,3.53c0.29,0.76,0.51,1.61,0.66,2.53H222.63z"/>
	<rect x="6.61" y="144.79" class="st0" width="17.99" height="9.42"/>
	<rect x="30.46" y="171.35" class="st0" width="17.99" height="9.42"/>
</g>
</svg>
