<svg width="24" height="25" viewBox="0 0 24 25" fill="none" xmlns="http://www.w3.org/2000/svg">
<g clip-path="url(#clip0_49_1844)">
<path d="M12 0C9.62664 0 7.30656 0.725115 5.33317 2.08365C3.35978 3.44219 1.8217 5.37313 0.913452 7.63229C0.00519944 9.89145 -0.232441 12.3774 0.230582 14.7757C0.693605 17.174 1.8365 19.377 3.51473 21.1061C5.19296 22.8352 7.33116 24.0127 9.65893 24.4897C11.9867 24.9668 14.3995 24.722 16.5922 23.7862C18.7849 22.8504 20.6591 21.2657 21.9777 19.2325C23.2962 17.1993 24 14.809 24 12.3637C23.9966 9.0857 22.7312 5.94301 20.4815 3.62515C18.2318 1.30728 15.1816 0.00354536 12 0V0ZM12 14.4243C11.5601 14.4258 11.1321 14.2774 10.7826 14.0022C10.433 13.727 10.1816 13.3405 10.0675 12.9028C9.95342 12.4651 9.98299 12.0008 10.1517 11.5822C10.3203 11.1636 10.6186 10.8142 11 10.5884V5.15152H13V10.5884C13.3815 10.8142 13.6797 11.1636 13.8484 11.5822C14.017 12.0008 14.0466 12.4651 13.9325 12.9028C13.8184 13.3405 13.567 13.727 13.2175 14.0022C12.868 14.2774 12.4399 14.4258 12 14.4243Z" fill="#8D99AE"/>
</g>
<defs>
<clipPath id="clip0_49_1844">
<rect width="24" height="24.7273" fill="white"/>
</clipPath>
</defs>
</svg>
