<svg width="14" height="14" viewBox="0 0 14 14" fill="none" xmlns="http://www.w3.org/2000/svg">
<path d="M2.42865 11.8275C4.98877 14.3441 9.10419 14.3087 11.6207 11.7486C14.1372 9.18848 14.1019 5.07307 11.5418 2.55655C8.98163 0.040032 4.86622 0.0753798 2.3497 2.6355C-0.166815 5.19562 -0.131468 9.31103 2.42865 11.8275ZM8.28143 5.21105C8.36775 5.12323 8.48542 5.0733 8.60855 5.07224C8.73168 5.07119 8.85019 5.11909 8.93801 5.20541C9.02582 5.29173 9.07575 5.40939 9.07681 5.53253C9.07787 5.65566 9.02997 5.77417 8.94365 5.86198L7.64178 7.18641L8.96621 8.48828C9.05402 8.5746 9.10395 8.69227 9.10501 8.8154C9.10606 8.93853 9.05816 9.05704 8.97184 9.14486C8.88553 9.23267 8.76786 9.2826 8.64472 9.28366C8.52159 9.28471 8.40309 9.23681 8.31527 9.15049L6.99084 7.84862L5.68897 9.17305C5.60265 9.26087 5.48498 9.3108 5.36185 9.31185C5.23872 9.31291 5.12021 9.26501 5.0324 9.17869C4.94458 9.09237 4.89465 8.9747 4.89359 8.85157C4.89254 8.72844 4.94044 8.60993 5.02676 8.52212L6.32863 7.19769L5.0042 5.89582C4.91638 5.8095 4.86645 5.69183 4.8654 5.5687C4.86434 5.44557 4.91224 5.32706 4.99856 5.23924C5.08488 5.15143 5.20255 5.1015 5.32568 5.10044C5.44881 5.09938 5.56732 5.14728 5.65513 5.2336L6.97956 6.53547L8.28143 5.21105Z" fill="#BED4E1"/>
</svg>
