<svg width="15" height="14" viewBox="0 0 15 14" fill="none" xmlns="http://www.w3.org/2000/svg">
<path d="M10.3665 7.66667C10.8665 7.66667 11.3065 7.39333 11.5332 6.98L13.9198 2.65333C13.976 2.55228 14.0048 2.43831 14.0035 2.3227C14.0021 2.20709 13.9705 2.09385 13.9119 1.99417C13.8533 1.8945 13.7697 1.81185 13.6694 1.75441C13.5691 1.69697 13.4555 1.66672 13.3398 1.66667H3.47317L2.8465 0.333333H0.666504V1.66667H1.99984L4.39984 6.72667L3.49984 8.35333C3.01317 9.24667 3.65317 10.3333 4.6665 10.3333H12.6665V9H4.6665L5.39984 7.66667H10.3665ZM4.1065 3H12.2065L10.3665 6.33333H5.6865L4.1065 3ZM4.6665 11C3.93317 11 3.33984 11.6 3.33984 12.3333C3.33984 13.0667 3.93317 13.6667 4.6665 13.6667C5.39984 13.6667 5.99984 13.0667 5.99984 12.3333C5.99984 11.6 5.39984 11 4.6665 11ZM11.3332 11C10.5998 11 10.0065 11.6 10.0065 12.3333C10.0065 13.0667 10.5998 13.6667 11.3332 13.6667C12.0665 13.6667 12.6665 13.0667 12.6665 12.3333C12.6665 11.6 12.0665 11 11.3332 11Z" fill="#677788"/>
</svg>
