<svg width="15" height="15" viewBox="0 0 15 15" fill="none" xmlns="http://www.w3.org/2000/svg">
<path d="M7.10003 3.53223H7.89856C7.97161 3.53223 8.03137 3.59199 8.03137 3.66504V8.23546C8.03137 8.27862 8.01145 8.31846 7.97659 8.34337L5.23235 10.3472C5.17258 10.3903 5.08958 10.3787 5.04641 10.319L4.57161 9.67149C4.52678 9.61007 4.54006 9.52706 4.59983 9.48555L6.96721 7.77393V3.66504C6.96721 3.59199 7.02698 3.53223 7.10003 3.53223ZM3.451 4.78067L0.847879 5.41651C0.764872 5.43643 0.683524 5.37334 0.683524 5.28868L0.670242 2.60752C0.670242 2.49629 0.798075 2.4332 0.884403 2.50293L3.50081 4.54659C3.52058 4.56188 3.53564 4.58245 3.54424 4.60592C3.55285 4.6294 3.55465 4.65482 3.54945 4.67927C3.54425 4.70373 3.53225 4.72621 3.51483 4.74415C3.49742 4.76209 3.47529 4.77475 3.451 4.78067ZM0.666923 9.7794L1.60823 9.45567C1.64105 9.44442 1.67697 9.44646 1.7083 9.46135C1.73964 9.47625 1.7639 9.50281 1.77591 9.53536C1.80745 9.62003 1.84065 9.70304 1.87552 9.78604C2.17102 10.485 2.59436 11.1142 3.13557 11.6537C3.67077 12.1906 4.30505 12.6185 5.00325 12.9138C5.72653 13.2196 6.50401 13.3765 7.28928 13.3753C8.08284 13.3753 8.85149 13.2209 9.57532 12.9138C10.2735 12.6185 10.9078 12.1906 11.443 11.6537C11.9825 11.1142 12.4059 10.485 12.703 9.78604C13.0072 9.06235 13.163 8.285 13.1613 7.50001C13.1613 6.70645 13.0069 5.93614 12.6997 5.21231C12.4042 4.51338 11.9809 3.88418 11.4397 3.34463C10.9045 2.80777 10.2702 2.37984 9.572 2.08457C8.85149 1.77744 8.08118 1.62305 7.28762 1.62305C6.49407 1.62305 5.72542 1.77744 5.00159 2.08457C4.30339 2.37984 3.66912 2.80777 3.13391 3.34463C2.96458 3.51563 2.8052 3.69326 2.65911 3.88086L1.66634 3.10391C2.97288 1.43379 5.00657 0.359667 7.29094 0.361327C11.2687 0.362987 14.4628 3.59366 14.423 7.57305C14.3831 11.4827 11.2039 14.6387 7.28762 14.6387C4.20803 14.6387 1.58499 12.6863 0.585575 9.95206C0.560673 9.88233 0.597197 9.80431 0.666923 9.7794Z" fill="#677788"/>
</svg>
