<svg width="15" height="15" viewBox="0 0 15 15" fill="none" xmlns="http://www.w3.org/2000/svg">
<path d="M2.09436 3.599H1.092C0.95908 3.599 0.831603 3.5462 0.737613 3.45221C0.643623 3.35822 0.59082 3.23074 0.59082 3.09782C0.59082 2.9649 0.643623 2.83742 0.737613 2.74343C0.831603 2.64944 0.95908 2.59664 1.092 2.59664H5.10145V1.09209C5.10145 0.959169 5.15425 0.831691 5.24824 0.737701C5.34223 0.643711 5.46971 0.590909 5.60263 0.590909H9.61208C9.74501 0.590909 9.87248 0.643711 9.96647 0.737701C10.0605 0.831691 10.1133 0.959169 10.1133 1.09209V2.59664H14.1227C14.2556 2.59664 14.3831 2.64944 14.4771 2.74343C14.5711 2.83742 14.6239 2.9649 14.6239 3.09782C14.6239 3.23074 14.5711 3.35822 14.4771 3.45221C14.3831 3.5462 14.2556 3.599 14.1227 3.599H13.1204V14.1238C13.1204 14.2567 13.0676 14.3842 12.9736 14.4782C12.8796 14.5722 12.7521 14.625 12.6192 14.625H2.59555C2.46262 14.625 2.33515 14.5722 2.24116 14.4782C2.14717 14.3842 2.09436 14.2567 2.09436 14.1238V3.599ZM9.1109 2.59664V1.59427H6.10381V2.59664H9.1109ZM3.09673 13.6226H12.118V3.599H3.09673V13.6226ZM6.10381 11.6179C5.97089 11.6179 5.84342 11.5651 5.74943 11.4711C5.65544 11.3771 5.60263 11.2497 5.60263 11.1167V6.10491C5.60263 5.97199 5.65544 5.84451 5.74943 5.75052C5.84342 5.65653 5.97089 5.60373 6.10381 5.60373C6.23674 5.60373 6.36421 5.65653 6.4582 5.75052C6.55219 5.84451 6.605 5.97199 6.605 6.10491V11.1167C6.605 11.2497 6.55219 11.3771 6.4582 11.4711C6.36421 11.5651 6.23674 11.6179 6.10381 11.6179ZM9.1109 11.6179C8.97798 11.6179 8.8505 11.5651 8.75651 11.4711C8.66252 11.3771 8.60972 11.2497 8.60972 11.1167V6.10491C8.60972 5.97199 8.66252 5.84451 8.75651 5.75052C8.8505 5.65653 8.97798 5.60373 9.1109 5.60373C9.24382 5.60373 9.3713 5.65653 9.46529 5.75052C9.55928 5.84451 9.61208 5.97199 9.61208 6.10491V11.1167C9.61208 11.2497 9.55928 11.3771 9.46529 11.4711C9.3713 11.5651 9.24382 11.6179 9.1109 11.6179Z" fill="#677788"/>
</svg>
