<svg width="20" height="20" viewBox="0 0 20 20" fill="none" xmlns="http://www.w3.org/2000/svg">
<path d="M14.0341 13.1728C14.6229 12.8564 15.2969 12.6764 16.0146 12.6764H16.0171C16.09 12.6764 16.1241 12.5888 16.0706 12.5401C15.3241 11.8703 14.4715 11.3292 13.5475 10.9392C13.5377 10.9343 13.528 10.9319 13.5183 10.927C15.0292 9.82968 16.0122 8.04623 16.0122 6.03406C16.0122 2.70073 13.3163 0 9.99029 0C6.66426 0 3.97083 2.70073 3.97083 6.03406C3.97083 8.04623 4.95379 9.82968 6.46718 10.927C6.45744 10.9319 6.44771 10.9343 6.43798 10.9392C5.35039 11.399 4.37472 12.0584 3.5353 12.9002C2.70073 13.7333 2.03631 14.7208 1.5791 15.8078C1.12925 16.8722 0.886474 18.0126 0.863769 19.1679C0.86312 19.1939 0.867675 19.2197 0.877166 19.2439C0.886656 19.268 0.900891 19.2901 0.919031 19.3087C0.93717 19.3273 0.958848 19.342 0.982787 19.3521C1.00673 19.3622 1.03244 19.3674 1.05842 19.3674H2.51584C2.62046 19.3674 2.70805 19.2822 2.71048 19.1776C2.75915 17.2993 3.51097 15.5401 4.84187 14.2068C6.21657 12.8273 8.04625 12.0681 9.99272 12.0681C11.3723 12.0681 12.6959 12.4501 13.837 13.1655C13.8663 13.1839 13.9 13.1942 13.9346 13.1955C13.9692 13.1968 14.0035 13.189 14.0341 13.1728ZM9.99272 10.219C8.87837 10.219 7.82971 9.78346 7.03895 8.9927C6.64989 8.60465 6.34145 8.14344 6.13141 7.63567C5.92137 7.12789 5.81387 6.58357 5.81511 6.03406C5.81511 4.91727 6.25063 3.86618 7.03895 3.07543C7.82727 2.28467 8.87594 1.84915 9.99272 1.84915C11.1095 1.84915 12.1557 2.28467 12.9465 3.07543C13.3356 3.46348 13.644 3.92468 13.854 4.43246C14.0641 4.94024 14.1716 5.48456 14.1703 6.03406C14.1703 7.15085 13.7348 8.20195 12.9465 8.9927C12.1557 9.78346 11.1071 10.219 9.99272 10.219ZM18.9416 16.0097H16.8978V13.9659C16.8978 13.8589 16.8102 13.7713 16.7032 13.7713H15.3407C15.2336 13.7713 15.146 13.8589 15.146 13.9659V16.0097H13.1022C12.9952 16.0097 12.9076 16.0973 12.9076 16.2044V17.5669C12.9076 17.674 12.9952 17.7616 13.1022 17.7616H15.146V19.8054C15.146 19.9124 15.2336 20 15.3407 20H16.7032C16.8102 20 16.8978 19.9124 16.8978 19.8054V17.7616H18.9416C19.0487 17.7616 19.1363 17.674 19.1363 17.5669V16.2044C19.1363 16.0973 19.0487 16.0097 18.9416 16.0097Z" fill="white"/>
</svg>
