<svg width="11" height="11" viewBox="0 0 11 11" fill="none" xmlns="http://www.w3.org/2000/svg">
<path d="M9.56102 7.02668L7.83218 9.84773C7.64233 10.1594 7.38389 10.4236 7.07652 10.6204C6.76915 10.8171 6.42096 10.9411 6.05843 10.983C5.96291 10.9943 5.8668 11 5.7706 11C5.2781 10.9993 4.79785 10.8464 4.3956 10.5623C3.97992 10.8737 3.46644 11.0259 2.94819 10.9914C2.42994 10.9568 1.94121 10.7378 1.57055 10.3739C1.19989 10.0101 0.971811 9.52549 0.927648 9.00798C0.883486 8.49046 1.02616 7.97424 1.32981 7.55285L0.727101 6.95106C0.469745 6.69369 0.273954 6.38142 0.154391 6.03765C0.0348285 5.69388 -0.00540734 5.32752 0.036697 4.96599C0.0788013 4.60447 0.202155 4.25716 0.397519 3.95007C0.592883 3.64297 0.855195 3.38406 1.16481 3.19272L3.80802 1.55831C4.52403 1.09941 5.36606 0.876925 6.2153 0.922236C7.06453 0.967547 7.87811 1.27837 8.54122 1.81085L9.3016 1.05047C9.34388 1.0067 9.39445 0.971779 9.45037 0.947759C9.50629 0.923738 9.56643 0.911094 9.62729 0.910565C9.68815 0.910037 9.7485 0.921633 9.80483 0.944678C9.86116 0.967724 9.91233 1.00176 9.95536 1.04479C9.9984 1.08782 10.0324 1.139 10.0555 1.19533C10.0785 1.25165 10.0901 1.31201 10.0896 1.37286C10.0891 1.43372 10.0764 1.49386 10.0524 1.54978C10.0284 1.6057 9.99346 1.65628 9.94968 1.69856L9.19022 2.45847C9.69959 3.09658 10.007 3.87217 10.073 4.68597C10.1391 5.49977 9.9608 6.31478 9.56102 7.02668ZM3.6971 9.92152L1.99256 8.21652C1.85936 8.45474 1.80798 8.73008 1.84631 9.00031C1.88465 9.27054 2.01057 9.52074 2.20477 9.71252C2.40067 9.8986 2.64984 10.0188 2.91743 10.0563C3.18501 10.0937 3.45762 10.0466 3.6971 9.92152ZM8.24422 2.77151C7.73527 2.25765 7.06528 1.93415 6.34635 1.85514C5.62743 1.77613 4.90318 1.9464 4.29477 2.33747L1.64698 3.97189C1.45495 4.09058 1.29227 4.25118 1.17111 4.44166C1.04996 4.63214 0.973464 4.84756 0.947364 5.07179C0.921264 5.29602 0.946233 5.52325 1.0204 5.73647C1.09457 5.94968 1.21601 6.14335 1.37564 6.30297L4.71689 9.64468C4.87677 9.80475 5.07087 9.92648 5.28458 10.0007C5.49829 10.075 5.72605 10.0998 5.95073 10.0733C6.17542 10.0468 6.39117 9.96977 6.58178 9.8479C6.77238 9.72602 6.93288 9.56252 7.05118 9.36968L8.77222 6.56239C9.10837 5.95864 9.23867 5.26181 9.1434 4.57739C9.04813 3.89297 8.73248 3.25822 8.24422 2.76922V2.77151ZM8.83043 11C8.73364 11.0002 8.63927 10.9697 8.56086 10.9129C8.48245 10.8562 8.42402 10.7761 8.39395 10.684C8.36388 10.592 8.3637 10.4929 8.39345 10.4008C8.4232 10.3087 8.48135 10.2283 8.55956 10.1713C9.3621 9.56793 9.90525 8.68202 10.0789 7.6931C10.0911 7.63357 10.115 7.57705 10.1492 7.52684C10.1834 7.47663 10.2273 7.43372 10.2783 7.40062C10.3292 7.36751 10.3863 7.34487 10.446 7.33401C10.5058 7.32315 10.5672 7.32428 10.6265 7.33735C10.6859 7.35041 10.742 7.37515 10.7917 7.41012C10.8414 7.44508 10.8837 7.48958 10.916 7.54103C10.9483 7.59247 10.9701 7.64983 10.9801 7.70977C10.9901 7.76972 10.988 7.83104 10.9741 7.89018C10.7495 9.09636 10.0809 10.1745 9.10039 10.912C9.02199 10.9691 8.92746 11 8.83043 11ZM0.458976 2.63035C0.374323 2.62997 0.291428 2.60616 0.219484 2.56154C0.147539 2.51693 0.0893543 2.45327 0.0513821 2.37761C0.01341 2.30195 -0.00286642 2.21725 0.00435769 2.13291C0.0115818 2.04856 0.0420241 1.96786 0.0923093 1.89976C0.839842 0.900866 1.94023 0.224703 3.1691 0.00913808C3.28823 -0.0151734 3.41213 0.00883357 3.51356 0.0758779C3.61498 0.142922 3.68562 0.247512 3.70993 0.366638C3.73425 0.485765 3.71024 0.60967 3.64319 0.711096C3.57615 0.812522 3.47156 0.88316 3.35243 0.907472C2.34317 1.07413 1.43762 1.62505 0.825642 2.44472C0.783191 2.50207 0.727937 2.54871 0.664281 2.58094C0.600625 2.61316 0.530324 2.63008 0.458976 2.63035Z" fill="#ffffff"/>
</svg>
