<svg width="11" height="11" viewBox="0 0 11 11" fill="none" xmlns="http://www.w3.org/2000/svg">
<g clip-path="url(#clip0_656_1185)">
<path d="M4.12508 6.41667H6.87508C6.99663 6.41667 7.11321 6.36838 7.19917 6.28242C7.28512 6.19647 7.33341 6.07989 7.33341 5.95833C7.33341 5.83678 7.28512 5.7202 7.19917 5.63424C7.11321 5.54829 6.99663 5.5 6.87508 5.5H4.12508C4.00352 5.5 3.88694 5.54829 3.80099 5.63424C3.71504 5.7202 3.66675 5.83678 3.66675 5.95833C3.66675 6.07989 3.71504 6.19647 3.80099 6.28242C3.88694 6.36838 4.00352 6.41667 4.12508 6.41667Z" fill="#ffffff"/>
<path d="M8.70833 0H2.29167C1.6841 0.000727768 1.10163 0.242404 0.672017 0.672017C0.242404 1.10163 0.000727768 1.6841 0 2.29167L0 2.75C0.000133287 2.9433 0.0410212 3.1344 0.119996 3.31083C0.19897 3.48726 0.314257 3.64505 0.458333 3.77392V8.70833C0.459061 9.3159 0.700738 9.89837 1.13035 10.328C1.55996 10.7576 2.14244 10.9993 2.75 11H8.25C8.85756 10.9993 9.44004 10.7576 9.86965 10.328C10.2993 9.89837 10.5409 9.3159 10.5417 8.70833V3.77392C10.6857 3.64505 10.801 3.48726 10.88 3.31083C10.959 3.1344 10.9999 2.9433 11 2.75V2.29167C10.9993 1.6841 10.7576 1.10163 10.328 0.672017C9.89837 0.242404 9.3159 0.000727768 8.70833 0V0ZM0.916667 2.29167C0.916667 1.92699 1.06153 1.57726 1.31939 1.31939C1.57726 1.06153 1.92699 0.916667 2.29167 0.916667H8.70833C9.07301 0.916667 9.42274 1.06153 9.68061 1.31939C9.93847 1.57726 10.0833 1.92699 10.0833 2.29167V2.75C10.0833 2.87156 10.035 2.98814 9.94909 3.07409C9.86314 3.16004 9.74656 3.20833 9.625 3.20833H1.375C1.25344 3.20833 1.13686 3.16004 1.05091 3.07409C0.964955 2.98814 0.916667 2.87156 0.916667 2.75V2.29167ZM9.625 8.70833C9.625 9.07301 9.48013 9.42274 9.22227 9.68061C8.96441 9.93847 8.61467 10.0833 8.25 10.0833H2.75C2.38533 10.0833 2.03559 9.93847 1.77773 9.68061C1.51987 9.42274 1.375 9.07301 1.375 8.70833V4.125H9.625V8.70833Z" fill="#ffffff"/>
</g>
<defs>
<clipPath id="clip0_656_1185">
<rect width="11" height="11" fill="white"/>
</clipPath>
</defs>
</svg>
