<svg width="16" height="16" viewBox="0 0 16 16" fill="none" xmlns="http://www.w3.org/2000/svg">
<g clip-path="url(#clip0_272_3183)">
<path d="M4 0C3.46957 0 2.96086 0.210714 2.58579 0.585786C2.21071 0.960859 2 1.46957 2 2V14C2 14.5304 2.21071 15.0391 2.58579 15.4142C2.96086 15.7893 3.46957 16 4 16H12C12.5304 16 13.0391 15.7893 13.4142 15.4142C13.7893 15.0391 14 14.5304 14 14V2C14 1.46957 13.7893 0.960859 13.4142 0.585786C13.0391 0.210714 12.5304 0 12 0L4 0ZM4 1H12C12.2652 1 12.5196 1.10536 12.7071 1.29289C12.8946 1.48043 13 1.73478 13 2V14C13 14.2652 12.8946 14.5196 12.7071 14.7071C12.5196 14.8946 12.2652 15 12 15H4C3.73478 15 3.48043 14.8946 3.29289 14.7071C3.10536 14.5196 3 14.2652 3 14V2C3 1.73478 3.10536 1.48043 3.29289 1.29289C3.48043 1.10536 3.73478 1 4 1Z" fill="#677788"/>
<path d="M4.60251 12.087C4.40761 12.0091 4.25057 11.8585 4.16451 11.667C3.96951 11.279 4.03451 10.891 4.24451 10.565C4.44251 10.258 4.77051 9.99703 5.14151 9.77803C5.61145 9.5115 6.1082 9.29531 6.62351 9.13303C7.0237 8.41361 7.37839 7.66982 7.68551 6.90603C7.50189 6.4888 7.35792 6.05522 7.25551 5.61103C7.16951 5.21103 7.13651 4.81503 7.20951 4.47503C7.28451 4.12103 7.48351 3.80303 7.85951 3.65203C8.05151 3.57503 8.25951 3.53203 8.46151 3.57503C8.56312 3.59666 8.65865 3.64064 8.74115 3.70377C8.82366 3.7669 8.89107 3.84761 8.93851 3.94003C9.02651 4.10403 9.05851 4.29603 9.06551 4.47803C9.07251 4.66503 9.05351 4.87303 9.01851 5.09203C8.93451 5.60203 8.74851 6.22603 8.49851 6.88603C8.77441 7.47605 9.10237 8.04028 9.47851 8.57203C9.92361 8.53687 10.3713 8.55365 10.8125 8.62203C11.1765 8.68703 11.5465 8.81703 11.7725 9.08703C11.8925 9.23103 11.9655 9.40703 11.9725 9.60503C11.9795 9.79703 11.9255 9.98703 11.8345 10.168C11.7557 10.3358 11.6335 10.4794 11.4805 10.584C11.3293 10.6827 11.1508 10.731 10.9705 10.722C10.6395 10.708 10.3165 10.526 10.0375 10.305C9.69828 10.0245 9.39259 9.70572 9.12651 9.35503C8.45026 9.43173 7.78203 9.56758 7.12951 9.76103C6.83036 10.291 6.48892 10.796 6.10851 11.271C5.81851 11.621 5.50051 11.926 5.18251 12.058C4.9998 12.1407 4.79256 12.151 4.60251 12.087ZM5.98151 10.186C5.81551 10.262 5.66151 10.342 5.52251 10.424C5.19451 10.618 4.98151 10.807 4.87551 10.971C4.78151 11.116 4.77951 11.221 4.83551 11.332C4.84551 11.354 4.85551 11.368 4.86151 11.376C4.87344 11.3728 4.88514 11.3688 4.89651 11.364C5.03351 11.308 5.25151 11.129 5.53151 10.792C5.69076 10.5971 5.84092 10.3948 5.98151 10.186ZM7.62151 8.85603C7.95543 8.77803 8.29237 8.71364 8.63151 8.66303C8.44935 8.38444 8.2792 8.09817 8.12151 7.80503C7.96469 8.15963 7.79796 8.50977 7.62151 8.85503V8.85603ZM10.0675 9.30603C10.2175 9.46803 10.3635 9.60603 10.5025 9.71603C10.7425 9.90603 10.9095 9.96903 11.0005 9.97203C11.0249 9.97522 11.0496 9.96992 11.0705 9.95703C11.1121 9.92418 11.1445 9.88111 11.1645 9.83203C11.2001 9.77112 11.2203 9.70249 11.2235 9.63203C11.2229 9.60854 11.2137 9.58609 11.1975 9.56903C11.1455 9.50703 10.9975 9.41703 10.6795 9.36003C10.4772 9.32622 10.2726 9.3085 10.0675 9.30703V9.30603ZM8.07751 5.80003C8.16168 5.52855 8.22848 5.25199 8.27751 4.97203C8.30851 4.78403 8.32051 4.62903 8.31551 4.50703C8.31579 4.43972 8.30498 4.37283 8.28351 4.30903C8.23349 4.31522 8.18464 4.3287 8.13851 4.34903C8.05151 4.38403 7.98051 4.45503 7.94251 4.63203C7.90251 4.82403 7.91251 5.10103 7.98851 5.45403C8.01251 5.56503 8.04251 5.68103 8.07851 5.80003H8.07751Z" fill="#677788"/>
</g>
<defs>
<clipPath id="clip0_272_3183">
<rect width="16" height="16" fill="white"/>
</clipPath>
</defs>
</svg>
