<svg width="15" height="15" viewBox="0 0 15 15" fill="none" xmlns="http://www.w3.org/2000/svg">
<path d="M14.1956 2.54813C14.0198 2.33715 13.7997 2.16747 13.5509 2.05114C13.3022 1.9348 13.0309 1.87467 12.7562 1.875H2.65125L2.625 1.65563C2.57128 1.19964 2.35211 0.779209 2.00905 0.47405C1.666 0.16889 1.22289 0.000213621 0.763749 0L0.624999 0C0.459239 0 0.300268 0.0658482 0.183058 0.183059C0.065848 0.300269 0 0.459241 0 0.625001C0 0.790762 0.065848 0.949733 0.183058 1.06694C0.300268 1.18415 0.459239 1.25 0.624999 1.25H0.763749C0.916832 1.25002 1.06458 1.30623 1.17898 1.40795C1.29338 1.50967 1.36646 1.64985 1.38437 1.80188L2.24437 9.11439C2.33365 9.87489 2.69905 10.5761 3.27119 11.085C3.84333 11.5939 4.5824 11.875 5.34812 11.875H11.875C12.0407 11.875 12.1997 11.8092 12.3169 11.692C12.4341 11.5748 12.5 11.4158 12.5 11.25C12.5 11.0843 12.4341 10.9253 12.3169 10.8081C12.1997 10.6909 12.0407 10.625 11.875 10.625H5.34812C4.96128 10.6239 4.58424 10.5032 4.2687 10.2794C3.95316 10.0556 3.71457 9.73974 3.58562 9.37502H11.0356C11.7683 9.37506 12.4777 9.11766 13.0399 8.64779C13.6021 8.17792 13.9813 7.52545 14.1112 6.80439L14.6019 4.08313C14.6508 3.81314 14.6398 3.53567 14.5696 3.2704C14.4994 3.00514 14.3717 2.75855 14.1956 2.54813Z" fill="white"/>
<path d="M4.375 15C5.06536 15 5.625 14.4403 5.625 13.75C5.625 13.0596 5.06536 12.5 4.375 12.5C3.68465 12.5 3.125 13.0596 3.125 13.75C3.125 14.4403 3.68465 15 4.375 15Z" fill="white"/>
<path d="M10.625 15C11.3154 15 11.875 14.4403 11.875 13.75C11.875 13.0596 11.3154 12.5 10.625 12.5C9.93465 12.5 9.375 13.0596 9.375 13.75C9.375 14.4403 9.93465 15 10.625 15Z" fill="white"/>
</svg>
