<svg width="12" height="14" viewBox="0 0 12 14" fill="none" xmlns="http://www.w3.org/2000/svg">
<path d="M11.0833 2.33333H9.275C9.13961 1.67499 8.7814 1.08345 8.26073 0.658419C7.74007 0.233386 7.08879 0.000848473 6.41667 0L5.25 0C4.57788 0.000848473 3.9266 0.233386 3.40594 0.658419C2.88527 1.08345 2.52706 1.67499 2.39167 2.33333H0.583333C0.428624 2.33333 0.280251 2.39479 0.170854 2.50419C0.0614581 2.61358 0 2.76196 0 2.91667C0 3.07138 0.0614581 3.21975 0.170854 3.32915C0.280251 3.43854 0.428624 3.5 0.583333 3.5H1.16667V11.0833C1.16759 11.8566 1.47518 12.5979 2.02196 13.1447C2.56874 13.6915 3.31007 13.9991 4.08333 14H7.58333C8.3566 13.9991 9.09793 13.6915 9.64471 13.1447C10.1915 12.5979 10.4991 11.8566 10.5 11.0833V3.5H11.0833C11.238 3.5 11.3864 3.43854 11.4958 3.32915C11.6052 3.21975 11.6667 3.07138 11.6667 2.91667C11.6667 2.76196 11.6052 2.61358 11.4958 2.50419C11.3864 2.39479 11.238 2.33333 11.0833 2.33333ZM5.25 1.16667H6.41667C6.77849 1.16711 7.13133 1.27947 7.42678 1.48834C7.72223 1.69721 7.94583 1.99237 8.06692 2.33333H3.59975C3.72084 1.99237 3.94444 1.69721 4.23989 1.48834C4.53534 1.27947 4.88817 1.16711 5.25 1.16667ZM9.33333 11.0833C9.33333 11.5475 9.14896 11.9926 8.82077 12.3208C8.49258 12.649 8.04746 12.8333 7.58333 12.8333H4.08333C3.6192 12.8333 3.17409 12.649 2.8459 12.3208C2.51771 11.9926 2.33333 11.5475 2.33333 11.0833V3.5H9.33333V11.0833Z" fill="#EF233C"/>
<path d="M4.66536 10.4999C4.82007 10.4999 4.96845 10.4385 5.07784 10.3291C5.18724 10.2197 5.2487 10.0713 5.2487 9.91658V6.41659C5.2487 6.26188 5.18724 6.1135 5.07784 6.00411C4.96845 5.89471 4.82007 5.83325 4.66536 5.83325C4.51065 5.83325 4.36228 5.89471 4.25289 6.00411C4.14349 6.1135 4.08203 6.26188 4.08203 6.41659V9.91658C4.08203 10.0713 4.14349 10.2197 4.25289 10.3291C4.36228 10.4385 4.51065 10.4999 4.66536 10.4999Z" fill="#EF233C"/>
<path d="M6.9974 10.4999C7.15211 10.4999 7.30048 10.4385 7.40987 10.3291C7.51927 10.2197 7.58073 10.0713 7.58073 9.91658V6.41659C7.58073 6.26188 7.51927 6.1135 7.40987 6.00411C7.30048 5.89471 7.15211 5.83325 6.9974 5.83325C6.84269 5.83325 6.69431 5.89471 6.58492 6.00411C6.47552 6.1135 6.41406 6.26188 6.41406 6.41659V9.91658C6.41406 10.0713 6.47552 10.2197 6.58492 10.3291C6.69431 10.4385 6.84269 10.4999 6.9974 10.4999Z" fill="#EF233C"/>
</svg>
