<svg width="24" height="25" viewBox="0 0 24 25" fill="none" xmlns="http://www.w3.org/2000/svg">
<path d="M12 0.151489C9.62664 0.151489 7.30656 0.876605 5.33317 2.23514C3.35978 3.59368 1.8217 5.52461 0.913452 7.78378C0.00519944 10.0429 -0.232441 12.5289 0.230582 14.9272C0.693605 17.3255 1.8365 19.5285 3.51473 21.2576C5.19296 22.9867 7.33116 24.1642 9.65893 24.6412C11.9867 25.1183 14.3995 24.8734 16.5922 23.9377C18.7849 23.0019 20.6591 21.4172 21.9777 19.384C23.2962 17.3508 24 14.9604 24 12.5151C23.9966 9.23718 22.7312 6.0945 20.4815 3.77663C18.2318 1.45877 15.1816 0.155035 12 0.151489V0.151489ZM12 14.5757C11.5601 14.5773 11.1321 14.4289 10.7826 14.1537C10.433 13.8785 10.1816 13.492 10.0675 13.0543C9.95342 12.6166 9.98299 12.1523 10.1517 11.7337C10.3203 11.3151 10.6186 10.9657 11 10.7399V5.30301H13V10.7399C13.3815 10.9657 13.6797 11.3151 13.8484 11.7337C14.017 12.1523 14.0466 12.6166 13.9325 13.0543C13.8184 13.492 13.567 13.8785 13.2175 14.1537C12.868 14.4289 12.4399 14.5773 12 14.5757Z" fill="#8D99AE"/>
</svg>
