<svg width="8" height="8" viewBox="0 0 8 8" fill="none" xmlns="http://www.w3.org/2000/svg">
<path d="M0.645917 0.645978C0.692363 0.599415 0.747538 0.562472 0.808283 0.537265C0.869028 0.512059 0.93415 0.499084 0.999917 0.499084C1.06568 0.499084 1.13081 0.512059 1.19155 0.537265C1.2523 0.562472 1.30747 0.599415 1.35392 0.645978L3.99992 3.29298L6.64592 0.645978C6.6924 0.59949 6.74759 0.562614 6.80833 0.537455C6.86907 0.512296 6.93417 0.499346 6.99992 0.499346C7.06566 0.499346 7.13076 0.512296 7.1915 0.537455C7.25224 0.562614 7.30743 0.59949 7.35392 0.645978C7.40041 0.692466 7.43728 0.747655 7.46244 0.808394C7.4876 0.869134 7.50055 0.934234 7.50055 0.999978C7.50055 1.06572 7.4876 1.13082 7.46244 1.19156C7.43728 1.2523 7.40041 1.30749 7.35392 1.35398L4.70692 3.99998L7.35392 6.64598C7.40041 6.69247 7.43728 6.74766 7.46244 6.80839C7.4876 6.86913 7.50055 6.93423 7.50055 6.99998C7.50055 7.06572 7.4876 7.13082 7.46244 7.19156C7.43728 7.2523 7.40041 7.30749 7.35392 7.35398C7.30743 7.40047 7.25224 7.43734 7.1915 7.4625C7.13076 7.48766 7.06566 7.50061 6.99992 7.50061C6.93417 7.50061 6.86907 7.48766 6.80833 7.4625C6.74759 7.43734 6.6924 7.40047 6.64592 7.35398L3.99992 4.70698L1.35392 7.35398C1.30743 7.40047 1.25224 7.43734 1.1915 7.4625C1.13076 7.48766 1.06566 7.50061 0.999917 7.50061C0.934173 7.50061 0.869073 7.48766 0.808333 7.4625C0.747594 7.43734 0.692405 7.40047 0.645917 7.35398C0.599429 7.30749 0.562553 7.2523 0.537394 7.19156C0.512234 7.13082 0.499285 7.06572 0.499285 6.99998C0.499285 6.93423 0.512234 6.86913 0.537394 6.80839C0.562553 6.74766 0.599429 6.69247 0.645917 6.64598L3.29292 3.99998L0.645917 1.35398C0.599354 1.30753 0.562411 1.25236 0.537204 1.19161C0.511998 1.13087 0.499023 1.06575 0.499023 0.999978C0.499023 0.934211 0.511998 0.86909 0.537204 0.808344C0.562411 0.747599 0.599354 0.692424 0.645917 0.645978Z" fill="white"/>
</svg>
