<svg width="19" height="25" viewBox="0 0 19 25" fill="none" xmlns="http://www.w3.org/2000/svg">
<path d="M15 25H3.75C2.75544 25 1.80161 24.6049 1.09835 23.9017C0.395088 23.1984 0 22.2446 0 21.25V3.75003C0 2.75547 0.395088 1.80164 1.09835 1.09838C1.80161 0.395119 2.75544 3.05176e-05 3.75 3.05176e-05H11.9875C12.3154 0.00141129 12.6297 0.1316 12.8625 0.36253L18.3875 5.88753C18.6184 6.12036 18.7486 6.43461 18.75 6.76253V21.25C18.75 22.2446 18.3549 23.1984 17.6517 23.9017C16.9484 24.6049 15.9946 25 15 25Z" fill="#F44336"/>
<path d="M17.875 7.17507H13.375C12.8777 7.17507 12.4008 6.97753 12.0492 6.6259C11.6975 6.27427 11.5 5.79735 11.5 5.30007V0.800071C11.4995 0.663699 11.5395 0.530246 11.615 0.416684C11.6905 0.303121 11.7981 0.214579 11.924 0.162319C12.05 0.110058 12.1887 0.096439 12.3224 0.123194C12.4561 0.149949 12.5788 0.215869 12.675 0.312571L18.3625 6.00007C18.4592 6.09623 18.5251 6.21897 18.5519 6.3527C18.5786 6.48642 18.565 6.62508 18.5128 6.75104C18.4605 6.877 18.372 6.98458 18.2584 7.06008C18.1448 7.13559 18.0114 7.17561 17.875 7.17507Z" fill="#FF8A80"/>
<path d="M4.23709 21.4125C4.15045 21.4251 4.06208 21.4173 3.97899 21.3897C3.89591 21.3621 3.82041 21.3155 3.7585 21.2536C3.6966 21.1917 3.65 21.1162 3.62241 21.0331C3.59482 20.95 3.58701 20.8617 3.59959 20.775V17.1125C3.58745 17.0271 3.59513 16.94 3.62205 16.8579C3.64897 16.7759 3.6944 16.7012 3.75483 16.6396C3.81525 16.578 3.88905 16.5311 3.97051 16.5025C4.05197 16.474 4.13891 16.4646 4.22459 16.475C4.30147 16.4664 4.37931 16.4737 4.45324 16.4965C4.52718 16.5193 4.59561 16.5571 4.65427 16.6075C4.71293 16.658 4.76055 16.72 4.79416 16.7896C4.82777 16.8593 4.84664 16.9352 4.84959 17.0125C4.95037 16.837 5.10327 16.6972 5.28709 16.6125C5.48387 16.5105 5.70294 16.4589 5.92459 16.4625C6.2074 16.4586 6.48529 16.5367 6.72459 16.6875C6.96041 16.8449 7.14678 17.066 7.26209 17.325C7.39447 17.6352 7.46271 17.969 7.46271 18.3063C7.46271 18.6435 7.39447 18.9773 7.26209 19.2875C7.09166 19.6348 6.79364 19.9029 6.43027 20.0356C6.0669 20.1684 5.66628 20.1556 5.31209 20C5.13485 19.9172 4.98358 19.7875 4.87459 19.625V20.7625C4.88181 20.8486 4.8711 20.9353 4.84313 21.0171C4.81516 21.0988 4.77054 21.1739 4.71209 21.2375C4.64864 21.297 4.57391 21.3431 4.49232 21.3732C4.41074 21.4032 4.32394 21.4166 4.23709 21.4125ZM5.48709 19.2125C5.57815 19.2135 5.66824 19.1938 5.75054 19.1548C5.83284 19.1158 5.90518 19.0586 5.96209 18.9875C6.10143 18.787 6.16358 18.5428 6.13709 18.3C6.16245 18.0573 6.1004 17.8135 5.96209 17.6125C5.90283 17.5451 5.82972 17.4912 5.74776 17.4545C5.66579 17.4178 5.57688 17.3992 5.48709 17.4C5.39532 17.3983 5.30426 17.4163 5.22012 17.453C5.13599 17.4897 5.06076 17.5441 4.99959 17.6125C4.86779 17.8164 4.80633 18.0579 4.82459 18.3C4.80443 18.5423 4.86605 18.7844 4.99959 18.9875C5.06151 19.0657 5.14193 19.1272 5.2336 19.1665C5.32526 19.2058 5.42527 19.2216 5.52459 19.2125H5.48709Z" fill="#FFEBEE"/>
<path d="M9.58695 20.1375C9.309 20.148 9.03441 20.0739 8.79945 19.925C8.55992 19.7684 8.36933 19.5474 8.24945 19.2875C8.11707 18.9773 8.04883 18.6436 8.04883 18.3063C8.04883 17.969 8.11707 17.6352 8.24945 17.325C8.36933 17.0651 8.55992 16.8442 8.79945 16.6875C9.03333 16.535 9.30779 16.4566 9.58695 16.4625C9.80444 16.4605 10.0191 16.512 10.2119 16.6125C10.3847 16.6909 10.5351 16.8112 10.6494 16.9625V15.6C10.6369 15.5134 10.6447 15.425 10.6723 15.3419C10.6999 15.2589 10.7465 15.1834 10.8084 15.1214C10.8703 15.0595 10.9458 15.0129 11.0288 14.9854C11.1119 14.9578 11.2003 14.95 11.2869 14.9625C11.3711 14.9563 11.4556 14.9675 11.5352 14.9955C11.6148 15.0235 11.6877 15.0676 11.7494 15.125C11.8079 15.1887 11.8525 15.2637 11.8805 15.3455C11.9085 15.4273 11.9192 15.5139 11.9119 15.6V19.4875C11.9252 19.6533 11.8721 19.8175 11.7642 19.9441C11.6564 20.0707 11.5027 20.1493 11.3369 20.1625C11.2549 20.1691 11.1723 20.1594 11.094 20.1341C11.0156 20.1087 10.943 20.0682 10.8804 20.0148C10.7538 19.907 10.6752 19.7533 10.6619 19.5875C10.5658 19.7622 10.4171 19.9021 10.2369 19.9875C10.0352 20.0883 9.81243 20.1397 9.58695 20.1375ZM9.99945 19.2125C10.0905 19.2135 10.1806 19.1938 10.2629 19.1548C10.3452 19.1158 10.4175 19.0586 10.4744 18.9875C10.6193 18.7892 10.686 18.5444 10.6619 18.3C10.6837 18.0558 10.6172 17.8119 10.4744 17.6125C10.4152 17.5451 10.3421 17.4912 10.2601 17.4545C10.1781 17.4178 10.0892 17.3993 9.99945 17.4C9.90953 17.3984 9.82035 17.4166 9.73826 17.4533C9.65617 17.4901 9.58317 17.5444 9.52445 17.6125C9.38173 17.8119 9.31521 18.0558 9.33695 18.3C9.3129 18.5444 9.37965 18.7892 9.52445 18.9875C9.58004 19.0601 9.65213 19.1184 9.73474 19.1575C9.81734 19.1966 9.90809 19.2155 9.99945 19.2125Z" fill="#FFEBEE"/>
<path d="M13.7751 20.1251C13.6889 20.1351 13.6017 20.1255 13.5198 20.097C13.4379 20.0685 13.3635 20.0218 13.3022 19.9605C13.2408 19.8992 13.1942 19.8248 13.1657 19.7429C13.1372 19.661 13.1276 19.5737 13.1376 19.4876V17.5001H12.9501C12.8848 17.5104 12.8181 17.5053 12.7551 17.4852C12.6921 17.4652 12.6347 17.4308 12.5874 17.3847C12.5401 17.3385 12.5041 17.282 12.4825 17.2196C12.4608 17.1572 12.454 17.0906 12.4626 17.0251C12.4626 16.7126 12.6251 16.5626 12.9501 16.5626H13.1251C13.1196 16.3621 13.1544 16.1626 13.2274 15.9758C13.3004 15.789 13.4101 15.6187 13.5501 15.4751C13.8726 15.2012 14.2773 15.0429 14.7001 15.0251H14.9126C15.0289 14.9785 15.1587 14.9785 15.2751 15.0251C15.3594 15.0732 15.4254 15.1479 15.4626 15.2376C15.4811 15.3283 15.4811 15.4219 15.4626 15.5126C15.4482 15.6008 15.4092 15.6831 15.3501 15.7501C15.2945 15.8198 15.2136 15.8648 15.1251 15.8751H15.0251C14.8423 15.8669 14.6621 15.9197 14.5126 16.0251C14.4642 16.0767 14.4269 16.1378 14.4033 16.2044C14.3796 16.2711 14.37 16.342 14.3751 16.4126V16.5251H14.7751C15.1001 16.5251 15.2626 16.6751 15.2626 16.9876C15.2712 17.0531 15.2643 17.1197 15.2427 17.1821C15.221 17.2445 15.1851 17.301 15.1378 17.3472C15.0904 17.3933 15.033 17.4277 14.9701 17.4477C14.9071 17.4678 14.8403 17.4729 14.7751 17.4626H14.3751V19.4626C14.3908 19.5476 14.3866 19.6351 14.363 19.7183C14.3393 19.8014 14.2969 19.878 14.2388 19.9421C14.1808 20.0062 14.1088 20.0561 14.0283 20.0878C13.9479 20.1195 13.8612 20.1323 13.7751 20.1251Z" fill="#FFEBEE"/>
</svg>
