<svg width="11" height="11" viewBox="0 0 11 11" fill="none" xmlns="http://www.w3.org/2000/svg">
<path d="M7.33325 10.5417C7.33325 10.7947 7.12837 11 6.87492 11H2.74992C1.48629 11 0.458252 9.97196 0.458252 8.70833V2.29167C0.458252 1.02804 1.48629 0 2.74992 0H4.81929C5.67592 0 6.48167 0.333667 7.08804 0.939583L8.68487 2.53733C8.80908 2.66154 8.92458 2.79767 9.02771 2.94204C9.17483 3.14783 9.12716 3.43429 8.92137 3.58142C8.71558 3.72808 8.42866 3.68088 8.282 3.47463C8.20821 3.3715 8.12571 3.27388 8.03725 3.18588L6.43996 1.58812C6.29421 1.44237 6.13242 1.31908 5.95825 1.21917V3.20833C5.95825 3.46088 6.16358 3.66667 6.41658 3.66667H7.79158C8.04504 3.66667 8.24991 3.872 8.24991 4.125C8.24991 4.378 8.04504 4.58333 7.79158 4.58333H6.41658C5.6585 4.58333 5.04158 3.96642 5.04158 3.20833V0.927208C4.96825 0.920333 4.894 0.916667 4.81929 0.916667H2.74992C1.99183 0.916667 1.37492 1.53358 1.37492 2.29167V8.70833C1.37492 9.46642 1.99183 10.0833 2.74992 10.0833H6.87492C7.12837 10.0833 7.33325 10.2887 7.33325 10.5417ZM9.93887 7.45571L8.54508 7.22333C8.37412 7.19492 8.24991 7.04825 8.24991 6.875C8.24991 6.62246 8.45525 6.41667 8.70825 6.41667H9.74775C9.91091 6.41667 10.0631 6.50467 10.1451 6.64583C10.2712 6.86492 10.5507 6.93963 10.7712 6.81313C10.9903 6.68617 11.0655 6.40613 10.938 6.18704C10.6933 5.76308 10.2368 5.49954 9.74729 5.49954H9.62446V5.04121C9.62446 4.78821 9.41958 4.58287 9.16612 4.58287C8.91266 4.58287 8.70779 4.78821 8.70779 5.04121V5.49954C7.94971 5.49954 7.33279 6.11646 7.33279 6.87454C7.33279 7.49788 7.77921 8.02496 8.39383 8.12717L9.78762 8.35954C9.95858 8.38796 10.0828 8.53463 10.0828 8.70788C10.0828 8.96042 9.87745 9.16621 9.62446 9.16621H8.58496C8.42179 9.16621 8.26962 9.07821 8.18758 8.93704C8.06154 8.7175 7.7815 8.64279 7.5615 8.76975C7.34241 8.89671 7.26725 9.17675 7.39467 9.39583C7.63941 9.81979 8.09591 10.0829 8.58541 10.0829H8.70825V10.5412C8.70825 10.7942 8.91312 10.9995 9.16658 10.9995C9.42004 10.9995 9.62491 10.7942 9.62491 10.5412V10.0829C10.383 10.0829 10.9999 9.46596 10.9999 8.70788C10.9999 8.08454 10.5535 7.55746 9.93887 7.45525V7.45571ZM3.43742 6.875H5.95825C6.21171 6.875 6.41658 6.66967 6.41658 6.41667C6.41658 6.16367 6.21171 5.95833 5.95825 5.95833H3.43742C2.80583 5.95833 2.29158 6.47258 2.29158 7.10417V8.02083C2.29158 8.65242 2.80583 9.16667 3.43742 9.16667H5.95825C6.21171 9.16667 6.41658 8.96133 6.41658 8.70833C6.41658 8.45533 6.21171 8.25 5.95825 8.25H3.43742C3.31092 8.25 3.20825 8.14733 3.20825 8.02083V7.10417C3.20825 6.97767 3.31092 6.875 3.43742 6.875ZM2.74992 5.04167H3.66658C3.91958 5.04167 4.12492 4.83633 4.12492 4.58333C4.12492 4.33033 3.91958 4.125 3.66658 4.125H2.74992C2.49692 4.125 2.29158 4.33033 2.29158 4.58333C2.29158 4.83633 2.49692 5.04167 2.74992 5.04167ZM2.74992 3.20833H3.66658C3.91958 3.20833 4.12492 3.003 4.12492 2.75C4.12492 2.497 3.91958 2.29167 3.66658 2.29167H2.74992C2.49692 2.29167 2.29158 2.497 2.29158 2.75C2.29158 3.003 2.49692 3.20833 2.74992 3.20833Z" fill="#261B10"/>
</svg>
