<svg width="18" height="12" viewBox="0 0 18 12" fill="none" xmlns="http://www.w3.org/2000/svg">
<path d="M16.3563 8.28399C16.426 7.90623 16.426 7.52043 16.3563 7.14267L17.0476 6.74347C17.1279 6.69792 17.1628 6.60415 17.136 6.51574C16.9565 5.93704 16.6484 5.41192 16.2465 4.9779C16.1849 4.91092 16.0857 4.89484 16.0054 4.94039L15.3141 5.33958C15.0221 5.09042 14.6872 4.89752 14.3255 4.76892V3.97053C14.3255 3.87944 14.2612 3.79906 14.1728 3.78031C13.5754 3.64635 12.9672 3.65171 12.3992 3.78031C12.3108 3.79906 12.2465 3.87944 12.2465 3.97053V4.76892C11.8848 4.89752 11.5499 5.09042 11.2579 5.33958L10.5666 4.94039C10.4889 4.89484 10.3871 4.91092 10.3255 4.9779C9.92364 5.41192 9.61554 5.93704 9.43604 6.51574C9.40924 6.60415 9.44675 6.69792 9.52445 6.74347L10.2157 7.14267C10.146 7.52043 10.146 7.90623 10.2157 8.28399L9.52445 8.68319C9.44407 8.72873 9.40924 8.82251 9.43604 8.91092C9.61554 9.48962 9.92364 10.0121 10.3255 10.4488C10.3871 10.5157 10.4863 10.5318 10.5666 10.4863L11.2579 10.0871C11.5499 10.3362 11.8848 10.5291 12.2465 10.6577V11.4561C12.2465 11.5472 12.3108 11.6276 12.3992 11.6463C12.9967 11.7803 13.6048 11.775 14.1728 11.6463C14.2612 11.6276 14.3255 11.5472 14.3255 11.4561V10.6577C14.6872 10.5291 15.0221 10.3362 15.3141 10.0871L16.0054 10.4863C16.0831 10.5318 16.1849 10.5157 16.2465 10.4488C16.6484 10.0147 16.9565 9.48962 17.136 8.91092C17.1628 8.82251 17.1253 8.72873 17.0476 8.68319L16.3563 8.28399ZM13.2887 9.01273C12.5707 9.01273 11.9893 8.42867 11.9893 7.71333C11.9893 6.99799 12.5733 6.41393 13.2887 6.41393C14.004 6.41393 14.5881 6.99799 14.5881 7.71333C14.5881 8.42867 14.0067 9.01273 13.2887 9.01273ZM2.572 5.14133C3.51775 5.14133 4.28667 4.3724 4.28667 3.42666C4.28667 2.48091 3.51775 1.71199 2.572 1.71199C1.62626 1.71199 0.857334 2.48091 0.857334 3.42666C0.857334 4.3724 1.62626 5.14133 2.572 5.14133ZM8.57334 5.99866C8.62425 5.99866 8.67247 5.98526 8.72338 5.98259C8.94575 5.40121 9.27261 4.85466 9.69591 4.39652C9.89417 4.18218 10.1755 4.05894 10.4702 4.05894C10.6551 4.05894 10.8372 4.10717 10.9953 4.20094L11.207 4.32418C11.2284 4.31078 11.2498 4.30007 11.2713 4.28667C11.4588 3.89551 11.5713 3.46149 11.5713 3.00067C11.5713 1.34226 10.2291 0 8.57066 0C6.91226 0 5.57267 1.33958 5.57267 2.99799C5.57267 4.6564 6.91494 5.99866 8.57334 5.99866ZM11.3918 11.2096C11.3302 11.1775 11.2686 11.14 11.2096 11.1052C10.99 11.2338 10.7997 11.3677 10.4729 11.3677C10.1808 11.3677 9.89953 11.2445 9.69859 11.0301C9.20831 10.4997 8.83322 9.85399 8.62157 9.16544C8.3349 8.24113 9.28868 7.83389 9.31279 7.81782C9.31011 7.74816 9.31011 7.6785 9.31279 7.60884L9.10114 7.4856C8.99933 7.42666 8.9136 7.35164 8.83858 7.26859C8.75017 7.27394 8.66443 7.28466 8.57602 7.28466C7.91695 7.28466 7.30074 7.12391 6.74079 6.85599H6.51842C4.81179 6.85599 3.42934 8.23845 3.42934 9.9424V10.714C3.42934 11.424 4.00536 12 4.71534 12H11.5579C11.4588 11.8392 11.3918 11.6571 11.3918 11.4561V11.2096ZM4.63764 6.49699C4.32686 6.18888 3.90087 5.99866 3.42934 5.99866H1.71467C0.768922 5.99866 0 6.76758 0 7.71333V8.57066C0 9.04488 0.383121 9.428 0.857334 9.428H2.62291C2.79169 8.15807 3.55794 7.08908 4.63764 6.49699Z" fill="white"/>
</svg>
