<svg width="17" height="17" viewBox="0 0 17 17" fill="none" xmlns="http://www.w3.org/2000/svg">
<path d="M5.33776 12.6792L1.20959 16.7925L0.208008 15.7909L4.33617 11.6762L5.33776 12.6792ZM9.80025 14.6377C10.4493 13.986 10.9174 13.1766 11.1586 12.2891C11.3998 11.4015 11.4057 10.4665 11.1758 9.57596L10.9548 8.67213L13.519 6.0938L13.9228 6.49826C14.2209 6.80649 14.618 6.99996 15.0445 7.04477C15.471 7.08958 15.8996 6.98287 16.2553 6.74334C16.4651 6.59406 16.6398 6.40083 16.7672 6.17711C16.8947 5.9534 16.9718 5.70458 16.9933 5.448C17.0147 5.19142 16.9799 4.93325 16.8914 4.69148C16.8028 4.44971 16.6626 4.23016 16.4805 4.04813L12.9941 0.558172C12.6958 0.250314 12.2987 0.0570999 11.8723 0.012301C11.446 -0.032498 11.0174 0.0739673 10.6616 0.313089C10.4516 0.462306 10.2768 0.655528 10.1492 0.879279C10.0216 1.10303 9.94433 1.35192 9.92281 1.6086C9.9013 1.86527 9.93604 2.12355 10.0246 2.36542C10.1132 2.60729 10.2534 2.82692 10.4356 3.00901L10.8939 3.46659L8.32905 6.04492L7.43088 5.82463C6.53958 5.59367 5.60347 5.59901 4.71486 5.8401C3.82624 6.0812 3.01581 6.54973 2.36347 7.1995L2.11342 7.45025L9.55092 14.8878L9.80025 14.6377Z" fill="white"/>
</svg>
