<svg width="13" height="12" viewBox="0 0 13 12" fill="none" xmlns="http://www.w3.org/2000/svg">
<path d="M8.307 0.104981C8.23309 0.0474898 8.14453 0.0119064 8.05139 0.00228224C7.95825 -0.00734188 7.86429 0.00938016 7.78019 0.0505444C7.69609 0.0917086 7.62523 0.155661 7.5757 0.235118C7.52616 0.314576 7.49994 0.406347 7.5 0.499981V2.49298C6.92553 2.51706 6.35865 2.6332 5.821 2.83698C4.98738 3.15209 4.26072 3.69804 3.726 4.41098C3.103 5.23698 2.645 6.38298 2.502 7.95498C2.49253 8.05743 2.5149 8.16031 2.56605 8.24958C2.6172 8.33885 2.69465 8.41017 2.78782 8.4538C2.881 8.49744 2.98537 8.51127 3.08669 8.4934C3.18802 8.47554 3.28136 8.42685 3.354 8.35398C4.542 7.16398 5.723 6.57798 6.596 6.28698C6.956 6.16698 7.264 6.09698 7.5 6.05698V7.99998C7.49997 8.09636 7.5278 8.1907 7.58014 8.27163C7.63248 8.35256 7.70709 8.41664 7.795 8.45616C7.88291 8.49567 7.98036 8.50894 8.07563 8.49436C8.17091 8.47978 8.25993 8.43798 8.332 8.37398L12.832 4.37398C12.887 4.32525 12.9305 4.26501 12.9596 4.19754C12.9886 4.13007 13.0024 4.05703 13 3.98361C12.9976 3.9102 12.9791 3.83821 12.9457 3.77277C12.9124 3.70733 12.865 3.65004 12.807 3.60498L8.307 0.104981ZM7.943 3.49698H7.946C8.01574 3.50425 8.08623 3.49682 8.15292 3.47518C8.21961 3.45354 8.28104 3.41817 8.33323 3.37135C8.38542 3.32453 8.42723 3.26729 8.45595 3.20333C8.48467 3.13937 8.49968 3.0701 8.5 2.99998V1.52198L11.719 4.02598L8.5 6.88598V5.49998C8.5 5.36737 8.44732 5.2402 8.35355 5.14643C8.25979 5.05266 8.13261 4.99998 8 4.99998H7.955C7.8024 5.00701 7.65022 5.02136 7.499 5.04298C7.199 5.08698 6.779 5.17098 6.279 5.33798C5.3616 5.64957 4.50127 6.10896 3.732 6.69798C3.926 5.98198 4.208 5.43398 4.525 5.01298C4.94677 4.44988 5.52062 4.01898 6.179 3.77098C6.70296 3.57309 7.26005 3.4777 7.82 3.48998C7.865 3.49098 7.899 3.49298 7.92 3.49498L7.942 3.49698H7.943ZM2.5 0.999981C1.83696 0.999981 1.20107 1.26337 0.732233 1.73221C0.263392 2.20106 0 2.83694 0 3.49998V9.49998C0 10.163 0.263392 10.7989 0.732233 11.2677C1.20107 11.7366 1.83696 12 2.5 12H8.5C9.16304 12 9.79893 11.7366 10.2678 11.2677C10.7366 10.7989 11 10.163 11 9.49998V8.49998C11 8.36737 10.9473 8.2402 10.8536 8.14643C10.7598 8.05266 10.6326 7.99998 10.5 7.99998C10.3674 7.99998 10.2402 8.05266 10.1464 8.14643C10.0527 8.2402 10 8.36737 10 8.49998V9.49998C10 9.89781 9.84196 10.2793 9.56066 10.5606C9.27936 10.8419 8.89782 11 8.5 11H2.5C2.10218 11 1.72064 10.8419 1.43934 10.5606C1.15804 10.2793 1 9.89781 1 9.49998V3.49998C1 3.10216 1.15804 2.72063 1.43934 2.43932C1.72064 2.15802 2.10218 1.99998 2.5 1.99998H4.5C4.63261 1.99998 4.75979 1.9473 4.85355 1.85353C4.94732 1.75977 5 1.63259 5 1.49998C5 1.36737 4.94732 1.2402 4.85355 1.14643C4.75979 1.05266 4.63261 0.999981 4.5 0.999981H2.5Z" fill="#8D99AE"/>
</svg>
