<svg width="15" height="15" viewBox="0 0 15 15" fill="none" xmlns="http://www.w3.org/2000/svg">
<path d="M12.8571 2.85714H0V0H12.8571V2.85714ZM6.42857 11.4286C6.42857 11.9286 6.50714 12.4071 6.64286 12.8571H0.714286V3.57143H12.1429V6.48571C11.9071 6.45 11.6714 6.42857 11.4286 6.42857C8.66429 6.42857 6.42857 8.66429 6.42857 11.4286ZM8.57143 7.14286V6.07143C8.57143 5.87143 8.41429 5.71429 8.21429 5.71429H4.64286C4.44286 5.71429 4.28571 5.87143 4.28571 6.07143V7.14286H8.57143ZM14.8571 12.4286C14.9286 12.4286 14.9286 12.5 14.8571 12.5714L14.1429 13.7857C14.0714 13.8571 14 13.8571 13.9286 13.8571L13.0714 13.5714C12.8571 13.7143 12.7143 13.7857 12.5 13.9286L12.3571 14.8571C12.3571 14.9286 12.2857 15 12.2143 15H10.7857C10.7143 15 10.6429 14.9286 10.5714 14.8571L10.4286 13.9286C10.2143 13.8571 10 13.7143 9.85714 13.5714L9 13.9286C8.92857 13.9286 8.85714 13.9286 8.78572 13.8571L8.07143 12.6429C8 12.5714 8.07143 12.5 8.14286 12.4286L8.92857 11.8571V11.1429L8.14286 10.5714C8.07143 10.5 8.07143 10.4286 8.07143 10.3571L8.78572 9.14286C8.85714 9.07143 8.92857 9.07143 9 9.07143L9.85714 9.42857C10.0714 9.28572 10.2143 9.21429 10.4286 9.07143L10.5714 8.14286C10.5714 8.07143 10.6429 8 10.7857 8H12.2143C12.2857 8 12.3571 8.07143 12.3571 8.14286L12.5 9.07143C12.7143 9.14286 12.9286 9.28572 13.1429 9.42857L14 9.07143C14.0714 9.07143 14.2143 9.07143 14.2143 9.14286L14.9286 10.3571C15 10.4286 14.9286 10.5 14.8571 10.5714L14.0714 11.1429V11.8571L14.8571 12.4286ZM12.5 11.4286C12.5 10.8571 12 10.3571 11.4286 10.3571C10.8571 10.3571 10.3571 10.8571 10.3571 11.4286C10.3571 12 10.8571 12.5 11.4286 12.5C12 12.5 12.5 12 12.5 11.4286Z" fill="white"/>
</svg>
