<svg width="11" height="11" viewBox="0 0 11 11" fill="none" xmlns="http://www.w3.org/2000/svg">
<path d="M7.10417 6.875H8.9375V7.79167H7.10417V6.875ZM11 6.41667V11H0V6.41667C0 5.65858 0.616917 5.04167 1.375 5.04167H2.29167V1.375C2.29167 0.616917 2.90858 0 3.66667 0H7.33333C8.09142 0 8.70833 0.616917 8.70833 1.375V5.04167H9.625C10.3831 5.04167 11 5.65858 11 6.41667ZM3.20833 5.04167H7.79167V1.375C7.79167 1.122 7.58633 0.916667 7.33333 0.916667H3.66667C3.41367 0.916667 3.20833 1.122 3.20833 1.375V5.04167ZM0.916667 10.0833H5.04167V5.95833H1.375C1.122 5.95833 0.916667 6.16367 0.916667 6.41667V10.0833ZM10.0833 6.41667C10.0833 6.16367 9.878 5.95833 9.625 5.95833H5.95833V10.0833H10.0833V6.41667ZM2.0625 6.875V7.79167H3.89583V6.875H2.0625ZM4.58333 2.75H6.41667V1.83333H4.58333V2.75Z" fill="#261B10"/>
</svg>
