<svg width="11" height="11" viewBox="0 0 11 11" fill="none" xmlns="http://www.w3.org/2000/svg">
<g clip-path="url(#clip0_656_1200)">
<path d="M7.79167 4.58333C6.02296 4.58333 4.58333 6.0225 4.58333 7.79167C4.58333 9.56083 6.02296 11 7.79167 11C9.56038 11 11 9.56083 11 7.79167C11 6.0225 9.56038 4.58333 7.79167 4.58333ZM7.79167 10.0833C6.52804 10.0833 5.5 9.05529 5.5 7.79167C5.5 6.52804 6.52804 5.5 7.79167 5.5C9.05529 5.5 10.0833 6.52804 10.0833 7.79167C10.0833 9.05529 9.05529 10.0833 7.79167 10.0833ZM8.57404 7.92596C8.75325 8.10517 8.75325 8.39483 8.57404 8.57404C8.48467 8.66342 8.36733 8.70833 8.25 8.70833C8.13267 8.70833 8.01533 8.66342 7.92596 8.57404L7.46762 8.11571C7.38146 8.02954 7.33333 7.91313 7.33333 7.79167V6.875C7.33333 6.622 7.53821 6.41667 7.79167 6.41667C8.04513 6.41667 8.25 6.622 8.25 6.875V7.60192L8.57404 7.92596ZM4.125 10.0833H2.29167C1.53358 10.0833 0.916667 9.46642 0.916667 8.70833V6.41667H3.66667C3.92013 6.41667 4.125 6.21133 4.125 5.95833C4.125 5.70533 3.92013 5.5 3.66667 5.5H0.916667V4.125C0.916667 3.36692 1.53358 2.75 2.29167 2.75H8.70833C9.46642 2.75 10.0833 3.36692 10.0833 4.125C10.0833 4.378 10.2882 4.58333 10.5417 4.58333C10.7951 4.58333 11 4.378 11 4.125C11 2.86138 9.97196 1.83333 8.70833 1.83333H8.20371C7.99058 0.788792 7.06475 0 5.95833 0H5.04167C3.93525 0 3.00896 0.788792 2.79629 1.83333H2.29167C1.02804 1.83333 0 2.86138 0 4.125V8.70833C0 9.97196 1.02804 11 2.29167 11H4.125C4.37846 11 4.58333 10.7947 4.58333 10.5417C4.58333 10.2887 4.37846 10.0833 4.125 10.0833ZM5.04167 0.916667H5.95833C6.556 0.916667 7.06521 1.29983 7.2545 1.83333H3.7455C3.93479 1.29983 4.444 0.916667 5.04167 0.916667Z" fill="#261B10"/>
</g>
<defs>
<clipPath id="clip0_656_1200">
<rect width="11" height="11" fill="white"/>
</clipPath>
</defs>
</svg>
